SplineFontDB: 3.0
FontName: Amatic-Bold
FullName: Amatic Bold
FamilyName: Amatic
Weight: Bold
Copyright: vernon adams 2011
Version: 2.000
FONDName: Amatic
ItalicAngle: 0
UnderlinePosition: -204
UnderlineWidth: 102
Ascent: 1638
Descent: 410
UFOAscent: 2048
UFODescent: -53
LayerCount: 2
Layer: 0 0 "Back"  1
Layer: 1 0 "Fore"  0
NeedsXUIDChange: 1
FSType: 0
OS2Version: 0
OS2_WeightWidthSlopeOnly: 0
OS2_UseTypoMetrics: 0
CreationTime: 1336026831
ModificationTime: 1336045295
PfmFamily: 33
TTFWeight: 700
TTFWidth: 3
LineGap: 0
VLineGap: 0
OS2TypoAscent: 2048
OS2TypoAOffset: 0
OS2TypoDescent: -83
OS2TypoDOffset: 0
OS2TypoLinegap: 0
OS2WinAscent: 2048
OS2WinAOffset: 0
OS2WinDescent: -83
OS2WinDOffset: 0
HheadAscent: 2048
HheadAOffset: 0
HheadDescent: -83
HheadDOffset: 0
OS2SubXSize: 1331
OS2SubYSize: 1229
OS2SubXOff: 0
OS2SubYOff: 154
OS2SupXSize: 1331
OS2SupYSize: 1229
OS2SupXOff: 0
OS2SupYOff: 717
OS2StrikeYSize: 102
OS2StrikeYPos: 614
OS2Vendor: 'newt'
Lookup: 258 0 0 "'kern' Horizontal Kerning in Latin lookup 0"  {"'kern' Horizontal Kerning in Latin lookup 0 subtable" [220,22,0] "'kern' Horizontal Kerning lookup 1 kerning class 1"  } ['kern' ('DFLT' <'dflt' > 'latn' <'dflt' > ) ]
MarkAttachClasses: 1
DEI: 91125
KernClass2: 32 23 "'kern' Horizontal Kerning lookup 1 kerning class 1" 
 73 A Aacute Abreve Acircumflex Adieresis Agrave Amacron Aogonek Aring Atilde
 1 B
 8 D Dcaron
 1 F
 13 J Jcircumflex
 14 K Kcommaaccent
 28 L Lacute Lcaron Lcommaaccent
 35 N Nacute Ncaron Ncommaaccent Ntilde
 73 O Oacute Obreve Ocircumflex Odieresis Ograve Ohungarumlaut Omacron Otilde
 1 P
 24 R Racute Rcaron Rcedilla
 29 T Tcaron Tcommaaccent uni021A
 80 U Uacute Ubreve Ucircumflex Udieresis Ugrave Uhungarumlaut Umacron Uogonek Uring
 1 V
 1 W
 18 Y Yacute Ydieresis
 73 a aacute abreve acircumflex adieresis agrave amacron aogonek aring atilde
 1 b
 8 d dcaron
 1 f
 28 g gbreve gcedilla gdotaccent
 14 k kcommaaccent
 28 l lacute lcaron lcommaaccent
 1 m

StartChar: A
Encoding: 55 65 1
Width: 656
VWidth: 0
Flags: HW
LayerCount: 2
Fore
SplineSet
472 1525 m 1
 454 1539 428 1543 406 1543 c 0
 253 1543 105 167 34 64 c 1
 43 26 92 23 124 23 c 1
 182 117 174 286 225 373 c 1
 281 369 420 351 464 321 c 1
 464 54 l 2
 464 13 487 1 527 1 c 0
 574 1 595 24 595 70 c 0
 595 284 552 521 552 710 c 0
 552 897 472 1370 472 1525 c 1
394 1236 m 0
 394 1110 452 576 462 447 c 1
 450 444 433 441 420 441 c 0
 359 441 297 448 238 464 c 1
 242 549 347 1204 395 1254 c 1
 394 1249 394 1243 394 1236 c 0
EndSplineSet
EndChar

StartChar: AE
Encoding: 155 198 2
Width: 879
VWidth: 0
Flags: HW
LayerCount: 2
Fore
SplineSet
453 706 m 1
 403 695 351 691 300 688 c 1
 342 889 400 1087 459 1283 c 1
 461 1240 461 1196 461 1153 c 0
 461 1004 455 855 453 706 c 1
448 2 m 1
 493 -43 l 1
 522 -38 544 -12 574 -12 c 0
 581 -12 593 -12 606 -12 c 0
 686 -12 850 -8 850 53 c 0
 850 87 811 103 782 103 c 0
 706 103 631 83 555 82 c 1
 555 262 550 442 549 622 c 1
 628 621 l 2
 631 621 634 621 637 621 c 0
 683 621 750 629 750 687 c 1
 708 735 l 1
 698 735 l 2
 648 735 600 720 550 716 c 1
 550 866 556 1016 556 1166 c 0
 556 1258 544 1349 542 1440 c 1
 606 1447 671 1450 736 1450 c 1
 757 1492 l 1
 757 1498 l 2
 757 1546 707 1554 670 1554 c 0
 617 1554 565 1544 512 1544 c 0
 435 1544 413 1437 396 1380 c 0
 310 1103 44 288 44 48 c 0
 44 27 61 1 84 1 c 0
 151 1 166 178 179 226 c 2
 280 611 l 1
 337 630 398 628 457 633 c 1
 457 506 467 380 467 253 c 0
 467 169 458 86 450 3 c 1
 448 2 l 1
EndSplineSet
EndChar

StartChar: B
Encoding: 56 66 12
Width: 576
VWidth: 0
Flags: HW
LayerCount: 2
Fore
SplineSet
214 1421 m 0
 296 1421 361 1321 361 1246 c 2
 361 1173 l 1
 330 1095 286 909 193 888 c 1
 192 1044 185 1201 185 1357 c 0
 185 1376 185 1421 214 1421 c 0
421 369 m 0
 421 232 343 112 202 90 c 1
 202 316 200 543 192 769 c 1
 265 769 l 1
 265 769 421 717 421 369 c 0
527 374 m 0
 527 537 477 737 295 859 c 1
 384 924 461 1075 461 1201 c 0
 461 1392 351 1537 151 1537 c 0
 77 1537 74 1440 74 1382 c 0
 74 1378 74 1374 74 1370 c 0
 74 1093 88 815 88 538 c 0
 88 370 78 202 78 34 c 0
 78 -15 137 -17 174 -17 c 0
 177 -17 179 -17 182 -17 c 0
 438 -17 527 282 527 374 c 0
EndSplineSet
EndChar

StartChar: C
Encoding: 57 67 13
Width: 649
VWidth: 0
Flags: HW
LayerCount: 2
Fore
SplineSet
557 166 m 0
 504 166 460 93 393 93 c 0
 165 93 158 549 158 807 c 0
 158 824 158 841 158 856 c 0
 158 904 176 951 176 999 c 0
 176 1046 170 1093 170 1140 c 0
 170 1294 175 1448 372 1448 c 1
 372 1443 l 1
 400 1443 l 1
 400 1444 l 1
 411 1426 453 1419 473 1419 c 0
 501 1419 530 1434 530 1465 c 0
 530 1531 442 1565 387 1565 c 0
 210 1565 61 1463 61 1290 c 0
 61 1270 63 1248 67 1226 c 1
 55 1164 53 1100 53 1037 c 0
 53 966 51 882 51 792 c 0
 51 425 79 -33 366 -33 c 0
 472 -33 617 4 617 135 c 1
 598 154 576 166 557 166 c 0
EndSplineSet
EndChar

StartChar: D
Encoding: 58 68 18
Width: 653
VWidth: 0
Flags: HW
LayerCount: 2
Fore
SplineSet
211 310 m 2
 211 683 163 1054 162 1427 c 1
 162 1429 l 1
 444 1429 488 1061 488 854 c 0
 488 615 428 254 211 114 c 1
 211 310 l 2
168 -5 m 0
 419 -5 593 503 593 711 c 0
 593 733 582 754 593 773 c 1
 593 868 l 2
 593 1023 587 1552 224 1552 c 0
 218 1552 201 1552 193 1552 c 0
 135 1552 36 1548 36 1481 c 0
 36 1400 81 1308 81 1206 c 0
 81 1131 75 1055 75 982 c 0
 75 758 113 533 113 306 c 0
 113 244 113 112 68 65 c 1
 68 14 126 -5 168 -5 c 0
EndSplineSet
EndChar

StartChar: E
Encoding: 59 69 23
Width: 457
VWidth: 0
Flags: HW
LayerCount: 2
Fore
SplineSet
431 50 m 1
 431 57 l 2
 431 108 350 111 314 111 c 0
 279 111 235 107 200 105 c 1
 200 737 l 1
 210 749 221 752 242 752 c 0
 261 752 280 750 293 750 c 0
 327 750 347 782 347 813 c 0
 347 844 317 870 287 870 c 0
 254 870 223 858 191 852 c 1
 192 930 201 1008 201 1086 c 0
 201 1199 185 1311 185 1424 c 1
 192 1425 200 1425 207 1425 c 0
 227 1425 246 1423 266 1423 c 0
 308 1423 359 1432 359 1484 c 0
 359 1527 301 1551 265 1551 c 0
 214 1551 164 1533 113 1533 c 1
 91 1513 77 1486 62 1461 c 1
 62 1454 l 2
 62 1383 90 1316 90 1245 c 2
 90 55 l 2
 90 -10 144 -12 192 -12 c 2
 256 -12 l 2
 315 -12 400 -11 431 50 c 1
EndSplineSet
EndChar

StartChar: Eng
Encoding: 65537 330 30
Width: 737
VWidth: 0
Flags: HW
LayerCount: 2
Fore
SplineSet
542 -113 m 4
 542 -240 360 -226 360 -325 c 4
 360 -369 394 -388 434 -388 c 5
 620 -236 645 -271 645 42 c 6
 645 1444 l 2
 645 1465 661 1485 670 1504 c 1
 670 1516 l 2
 670 1553 660 1596 615 1596 c 0
 582 1596 556 1580 548 1545 c 1
 548 939 l 2
 548 701 540 463 540 225 c 1
 539 228 250 1564 126 1564 c 0
 89 1564 81 1508 81 1462 c 2
 81 1449 l 2
 81 1324 67 1198 67 1073 c 2
 67 812 l 2
 67 688 93 371 93 177 c 0
 93 109 83 65 83 30 c 0
 83 7 104 -2 128 -2 c 0
 161 -2 200 16 200 42 c 0
 200 237 171 431 171 626 c 2
 171 1298 l 1
 274 887 450 234 543 32 c 5
 543 -17 542 -65 542 -113 c 4
EndSplineSet
EndChar

StartChar: Eth
Encoding: 165 208 32
Width: 810
VWidth: 0
Flags: HW
LayerCount: 2
Fore
SplineSet
168 -5 m 0
 419 -5 593 503 593 711 c 0
 593 733 582 754 593 773 c 1
 593 868 l 2
 593 1023 587 1552 224 1552 c 0
 218 1552 201 1552 193 1552 c 0
 135 1552 36 1548 36 1481 c 0
 36 1400 81 1308 81 1206 c 0
 81 1131 75 1055 75 982 c 0
 75 959 75 937 76 914 c 1
 34 914 -44 906 -44 854 c 0
 -44 824 -25 795 8 795 c 0
 33 795 58 798 82 802 c 1
 93 637 113 472 113 306 c 0
 113 244 113 112 68 65 c 1
 68 14 126 -5 168 -5 c 0
190 814 m 1
 253 818 317 819 380 819 c 1
 414 860 l 1
 412 896 389 940 347 940 c 0
 292 940 238 931 183 924 c 1
 172 1091 162 1259 162 1427 c 2
 162 1429 l 1
 444 1429 488 1061 488 854 c 0
 488 615 428 254 211 114 c 1
 211 310 l 2
 211 478 201 646 190 814 c 1
EndSplineSet
EndChar

StartChar: Euro
Encoding: 399 8364 33
Width: 649
VWidth: 0
Flags: HW
LayerCount: 2
Fore
SplineSet
368 700 m 0
 368 711 362 724 354 731 c 1
 291 726 227 726 164 725 c 1
 159 811 l 1
 222 813 285 814 347 821 c 1
 355 828 361 841 361 852 c 0
 361 876 283 880 224 880 c 0
 194 880 168 879 159 879 c 1
 169 972 170 1047 170 1140 c 0
 170 1294 175 1448 372 1448 c 0
 398 1448 436 1419 473 1419 c 0
 501 1419 530 1434 530 1465 c 0
 530 1531 443 1565 387 1565 c 0
 209 1565 61 1462 61 1289 c 0
 61 1269 63 1248 67 1226 c 1
 56 1164 53 1101 53 1038 c 0
 53 984 55 930 55 877 c 1
 10 877 l 2
 -16 877 -35 876 -35 845 c 0
 -35 833 -30 813 -16 808 c 1
 56 808 l 1
 60 724 l 1
 55 724 50 724 44 724 c 0
 14 724 -28 721 -28 687 c 0
 -28 677 -23 664 -15 657 c 1
 64 654 l 1
 76 450 56 -33 366 -33 c 0
 472 -33 617 4 617 135 c 1
 590 162 l 1
 569 155 547 152 525 152 c 1
 492 113 443 93 393 93 c 0
 336 93 273 111 239 160 c 0
 205 209 176 578 170 653 c 1
 178 653 193 652 210 652 c 0
 271 652 368 657 368 700 c 0
EndSplineSet
EndChar

StartChar: F
Encoding: 60 70 34
Width: 391
VWidth: 0
Flags: HW
LayerCount: 2
Fore
SplineSet
225 81 m 1
 226 85 230 90 230 94 c 0
 230 317 191 538 191 761 c 1
 236 764 361 762 361 828 c 0
 361 858 337 891 305 891 c 0
 266 891 229 876 191 869 c 1
 189 1053 160 1235 160 1419 c 0
 160 1438 189 1442 217 1442 c 0
 238 1442 258 1440 267 1440 c 0
 294 1440 324 1453 324 1484 c 0
 324 1544 289 1554 237 1554 c 0
 154 1554 39 1550 39 1440 c 1
 71 1390 101 283 101 129 c 0
 101 90 105 -2 160 -2 c 0
 202 -2 229 21 229 56 c 0
 229 64 228 72 225 81 c 1
EndSplineSet
EndChar

StartChar: G
Encoding: 61 71 35
Width: 727
VWidth: 0
Flags: HW
LayerCount: 2
Fore
SplineSet
562 2 m 1
 573 -26 601 -41 630 -41 c 0
 661 -41 680 -14 680 15 c 0
 680 138 639 257 639 380 c 0
 639 434 613 489 552 489 c 0
 512 489 375 477 375 421 c 0
 375 374 408 363 445 363 c 0
 473 363 503 369 525 371 c 1
 549 329 557 190 558 137 c 1
 521 84 473 51 407 51 c 0
 178 51 160 400 160 617 c 0
 160 670 161 709 161 744 c 0
 161 927 166 1495 374 1495 c 0
 394 1495 413 1485 433 1485 c 0
 461 1485 487 1503 487 1533 c 0
 487 1580 440 1591 402 1591 c 0
 77 1591 51 1158 51 862 c 0
 51 805 52 753 52 711 c 0
 52 464 61 -54 411 -54 c 0
 467 -54 513 -18 562 4 c 1
 562 2 l 1
EndSplineSet
EndChar

StartChar: H
Encoding: 62 72 40
Width: 560
VWidth: 0
Flags: HW
LayerCount: 2
Fore
SplineSet
54 1510 m 0
 54 1319 56 5 171 5 c 0
 199 5 215 34 215 59 c 0
 215 291 182 521 181 753 c 1
 219 769 261 769 302 769 c 0
 325 769 348 763 370 759 c 1
 383 519 388 278 388 37 c 0
 388 4 401 -31 440 -31 c 0
 477 -31 500 10 500 43 c 0
 500 491 461 943 461 1393 c 0
 461 1469 459 1550 361 1550 c 1
 361 1496 l 2
 361 1272 368 1048 369 824 c 1
 302 822 237 811 170 809 c 1
 167 827 166 844 166 862 c 0
 166 888 168 914 168 939 c 0
 168 1079 154 1220 154 1360 c 0
 154 1411 156 1462 161 1514 c 1
 150 1529 116 1547 89 1547 c 0
 69 1547 54 1537 54 1510 c 0
EndSplineSet
EndChar

StartChar: Hbar
Encoding: 249 294 41
Width: 560
VWidth: 0
Flags: HW
LayerCount: 2
Fore
SplineSet
271 1265 m 0
 301 1265 331 1265 355 1266 c 1
 360 1119 368 971 369 824 c 1
 302 822 237 811 170 809 c 1
 167 827 166 844 166 862 c 0
 166 888 168 914 168 939 c 0
 168 1046 160 1153 156 1261 c 1
 192 1262 232 1265 271 1265 c 0
351 1496 m 1
 351 1443 351 1390 353 1337 c 1
 328 1338 302 1339 277 1339 c 0
 227 1339 182 1336 154 1335 c 1
 154 1360 l 2
 154 1411 161 1467 161 1515 c 0
 161 1536 128 1554 108 1554 c 0
 92 1554 53 1540 53 1520 c 0
 53 1453 54 1385 56 1318 c 1
 48 1311 43 1303 43 1291 c 0
 43 1281 48 1274 57 1269 c 1
 62 1046 75 824 91 602 c 0
 97 514 90 83 115 41 c 0
 130 16 141 5 171 5 c 0
 199 5 215 34 215 59 c 0
 215 291 182 521 181 753 c 1
 219 769 261 769 302 769 c 0
 325 769 348 763 370 759 c 1
 383 519 388 278 388 37 c 0
 388 4 401 -31 440 -31 c 0
 477 -31 500 10 500 43 c 0
 500 448 468 855 462 1262 c 1
 475 1262 485 1265 485 1284 c 0
 485 1297 476 1307 461 1314 c 1
 461 1493 l 2
 461 1542 410 1544 377 1544 c 0
 375 1544 372 1544 370 1544 c 0
 356 1544 350 1541 350 1511 c 1
 351 1496 l 1
EndSplineSet
EndChar

StartChar: I
Encoding: 63 73 42
Width: 432
VWidth: 0
Flags: HW
LayerCount: 2
Fore
SplineSet
352 8 m 1
 403 43 l 1
 403 55 l 2
 403 113 363 127 318 127 c 0
 304 127 290 126 276 124 c 1
 276 203 l 2
 276 603 226 1001 226 1401 c 0
 226 1437 241 1443 265 1443 c 0
 275 1443 287 1442 301 1442 c 0
 331 1442 349 1470 349 1497 c 0
 349 1529 320 1553 289 1553 c 0
 237 1553 36 1540 36 1468 c 0
 36 1430 57 1419 84 1419 c 0
 99 1419 117 1423 132 1428 c 1
 136 1390 137 1352 137 1314 c 0
 137 1244 133 1175 133 1105 c 0
 133 789 171 474 171 158 c 0
 171 118 160 110 141 110 c 0
 129 110 115 113 98 113 c 0
 66 113 36 101 36 64 c 0
 36 13 127 3 213 3 c 0
 274 3 332 8 352 8 c 1
EndSplineSet
EndChar

StartChar: J
Encoding: 64 74 53
Width: 419
VWidth: 0
Flags: HW
LayerCount: 2
Fore
SplineSet
164 1445 m 1
 212 1155 218 836 218 525 c 0
 218 429 217 334 217 241 c 0
 217 102 163 -12 135 -48 c 1
 105 -61 55 -94 55 -131 c 0
 55 -175 89 -194 129 -194 c 1
 264.099998474 -147 327 0.463288393656 327 152 c 0
 327 207 328 260 328 315 c 0
 328 581 291 846 291 1112 c 0
 291 1218 267 1323 267 1429 c 2
 267 1445 l 1
 295 1445 l 2
 297 1445 299 1444 301 1444 c 0
 336 1444 386 1453 386 1497 c 0
 386 1548 336 1553 294 1553 c 2
 268 1553 l 2
 219 1553 23 1553 23 1481 c 0
 23 1453 47 1429 75 1429 c 0
 105 1429 135 1439 164 1445 c 1
EndSplineSet
EndChar

StartChar: K
Encoding: 65 75 55
Width: 650
VWidth: 0
Flags: HW
LayerCount: 2
Fore
SplineSet
70 1476 m 0
 70 1347 100 1238 100 1049 c 0
 100 905 97 754 97 660 c 0
 97 476 70 292 70 108 c 0
 70 67 72 -7 130 -7 c 0
 198 -7 200 78 200 102 c 0
 200 168 200 224 200 270 c 0
 200 397 187 523 187 650 c 0
 187 769 203 776 257 880 c 1
 389 590 452 272 507 -40 c 1
 523 -41 539 -48 555 -48 c 0
 587 -48 620 -23 620 11 c 0
 620 48 359 864 323 955 c 1
 323 991 l 1
 349 1108 560 1497 560 1542 c 0
 560 1574 532 1596 502 1596 c 0
 432 1596 234 1045 195 954 c 1
 198 1094 204 1235 204 1375 c 0
 204 1426 202 1541 128 1541 c 0
 93 1541 70 1509 70 1476 c 0
EndSplineSet
EndChar

StartChar: L
Encoding: 66 76 57
Width: 430
VWidth: 0
Flags: HW
LayerCount: 2
Fore
SplineSet
201 115 m 1
 201 167 l 2
 201 345 201 523 193 701 c 1
 193 710 l 1
 196 732 191 753 191 775 c 0
 191 1019 170 1266 170 1512 c 0
 170 1546 141 1571 108 1571 c 0
 83 1571 58 1556 58 1529 c 0
 58 1063 99 598 99 132 c 0
 99 101 86 73 86 42 c 0
 86 7 121 -23 155 -23 c 0
 176 -23 199 -15 213 2 c 1
 235 2 257 -1 279 -1 c 0
 292 -1 305 0 318 3 c 1
 327 1 339 -4 349 -4 c 0
 380 -4 401 25 401 54 c 0
 401 83 379 100 357 115 c 1
 201 115 l 1
EndSplineSet
EndChar

StartChar: Lslash
Encoding: 276 321 62
Width: 430
VWidth: 0
Flags: HW
LayerCount: 2
Fore
SplineSet
404 897 m 0
 404 929 384 949 366 949 c 0
 338 949 270 939 190 904 c 1
 185 1106 170 1309 170 1512 c 0
 170 1546 141 1571 108 1571 c 0
 83 1571 58 1556 58 1529 c 0
 58 1310 67 1092 76 873 c 1
 15 860 -38 838 -38 803 c 0
 -38 774 -4 754 29 754 c 0
 38 754 57 757 81 768 c 1
 90 556 99 344 99 132 c 0
 99 101 86 73 86 42 c 0
 86 22 116 5 145 5 c 0
 170 5 196 2 213 2 c 0
 235 2 257 -1 279 -1 c 0
 292 -1 305 0 318 3 c 1
 327 1 339 -4 349 -4 c 0
 380 -4 401 25 401 54 c 0
 401 83 379 100 357 115 c 1
 201 115 l 1
 201 167 l 2
 201 345 201 523 193 701 c 1
 193 710 l 2
 194 717 194 723 194 730 c 0
 194 752 191 773 191 795 c 2
 191 797 l 1
 299 813 404 842 404 897 c 0
EndSplineSet
EndChar

StartChar: M
Encoding: 67 77 63
Width: 824
VWidth: 0
Flags: HW
LayerCount: 2
Fore
SplineSet
598 1517 m 1
 579 1188 488 850 420 528 c 1
 389 674 245 1546 136 1554 c 1
 79 1522 l 1
 77 1434 76 1346 76 1257 c 0
 76 993 83 729 83 464 c 0
 83 353 73 243 73 132 c 0
 73 68 85 6 163 6 c 1
 183 27 194 54 194 83 c 0
 194 364 177 644 177 925 c 0
 177 1007 179 1090 181 1172 c 1
 235 931 332 660 332 413 c 0
 332 364 332 222 405 222 c 0
 483 222 485 347 496 401 c 1
 496 414 l 1
 522 605 587 801 622 993 c 1
 622 889 l 2
 622 602 630 314 630 27 c 0
 630 -30 651 -54 675 -54 c 0
 711 -54 756 -2 756 67 c 0
 756 557 719 1045 719 1535 c 0
 719 1560 697 1587 671 1587 c 0
 636 1587 604 1565 598 1529 c 1
 598 1517 l 1
EndSplineSet
EndChar

StartChar: N
Encoding: 68 78 64
Width: 737
VWidth: 0
Flags: HW
LayerCount: 2
Fore
SplineSet
540 225 m 1
 539 228 250 1564 126 1564 c 0
 89 1564 81 1508 81 1462 c 0
 81 1458 81 1454 81 1449 c 0
 81 1324 67 1198 67 1073 c 2
 67 812 l 2
 67 688 93 371 93 177 c 0
 93 109 83 65 83 30 c 0
 83 7 104 -2 128 -2 c 0
 161 -2 200 16 200 42 c 0
 200 237 171 431 171 626 c 2
 171 1298 l 1
 294 808 521 -30 586 -30 c 0
 622 -30 645 25 645 61 c 2
 645 687 l 2
 645 939 658 1193 658 1444 c 0
 658 1465 661 1485 670 1504 c 1
 670 1516 l 2
 670 1553 660 1596 615 1596 c 0
 582 1596 556 1580 548 1545 c 1
 548 939 l 2
 548 701 540 463 540 225 c 1
EndSplineSet
EndChar

StartChar: O
Encoding: 69 79 69
Width: 650
VWidth: 0
Flags: HW
LayerCount: 2
Fore
SplineSet
273 1585 m 0
 603 1585 582 931 582 618 c 0
 582 531 565 446 564 359 c 1
 564 350 l 1
 554 306 551 261 551 215 c 0
 551 113 475 -57 355 -57 c 0
 83 -57 57 609 57 799 c 0
 57 1041 10 1585 273 1585 c 0
283 1477 m 0
 151 1477 149 979 149 861 c 0
 149 858 149 855 149 852 c 0
 149 720 194 55 359 55 c 0
 477 55 489 561 489 653 c 0
 489 797 484 1477 283 1477 c 0
EndSplineSet
EndChar

StartChar: OE
Encoding: 290 338 70
Width: 1113
VWidth: 0
Flags: HW
LayerCount: 2
Fore
SplineSet
921 87 m 1
 877 87 832 83 788 80 c 1
 787 306 774 531 774 757 c 1
 783 758 793 758 802 758 c 0
 836 758 868 754 902 754 c 0
 944 754 958 780 958 818 c 1
 933 850 913 855 888 855 c 0
 875 855 860 854 843 854 c 0
 840 854 837 854 834 854 c 2
 772 856 l 1
 768 875 767 894 767 913 c 0
 767 948 771 983 771 1018 c 0
 771 1157 743 1294 743 1433 c 1
 816 1432 888 1426 961 1426 c 0
 987 1426 1021 1439 1021 1470 c 0
 1021 1498 996 1517 974 1529 c 1
 957 1528 940 1525 923 1525 c 2
 771 1525 l 2
 740 1525 710 1537 679 1537 c 1
 649 1494 l 1
 568 1546 465 1551 372 1551 c 0
 53 1551 51 1032 51 809 c 0
 51 438 83 9 561 9 c 0
 599 9 635 22 670 33 c 1
 669 26 l 1
 669 -6 717 -22 743 -22 c 0
 851 -22 959 -16 1067 -16 c 1
 1090 18 l 1
 1090 25 l 2
 1090 80 1008 85 954 85 c 0
 943 85 933 85 925 85 c 1
 921 87 l 1
145 751 m 1
 146 774 146 797 146 820 c 0
 146 865 145 911 145 957 c 0
 145 1127 172 1449 404 1449 c 0
 486 1449 589 1436 647 1371 c 1
 653 970 688 569 688 168 c 0
 688 122 541 112 508 112 c 0
 411 112 319 158 257 232 c 1
 157 241 177 689 145 751 c 1
EndSplineSet
EndChar

StartChar: Oslash
Encoding: 173 216 78
Width: 728
VWidth: 0
Flags: HW
LayerCount: 2
Fore
SplineSet
329 1477 m 0
 197 1477 195 979 195 861 c 2
 195 852 l 2
 195 785 207 581 240 396 c 1
 422 1415 l 1
 397 1454 366 1477 329 1477 c 0
471 1299 m 1
 276 239 l 1
 307 132 349 55 405 55 c 0
 523 55 535 561 535 653 c 0
 535 749 533 1087 471 1299 c 1
250 47 m 1
 178 -280 l 1
 133 -224 l 1
 195 143 l 1
 114 355 103 676 103 799 c 0
 103 863 100 948 100 1039 c 0
 100 1291 125 1585 319 1585 c 0
 368 1585 410 1571 445 1545 c 1
 490 1799 l 1
 569 1799 l 1
 505 1481 l 1
 620 1313 629 976 629 734 c 0
 629 692 628 653 628 618 c 0
 628 531 611 446 610 359 c 1
 610 350 l 1
 600 306 597 261 597 215 c 0
 597 113 521 -57 401 -57 c 0
 333 -57 291 -18 250 47 c 1
EndSplineSet
EndChar

StartChar: P
Encoding: 70 80 80
Width: 495
VWidth: 0
Flags: HW
LayerCount: 2
Fore
SplineSet
96 789 m 0
 96 526 86 260 86 58 c 0
 86 29 99 -11 135 -11 c 0
 186 -11 203 30 203 74 c 0
 203 287 188 499 187 712 c 1
 361 805 443 983 443 1175 c 0
 443 1365 333 1566 122 1566 c 0
 90 1566 61 1546 43 1520 c 1
 84 1327 96 1059 96 789 c 0
338 1158 m 2
 338 1014 286 909 182 811 c 1
 181 1027 159 1243 158 1459 c 1
 295 1362 338 1334 338 1159 c 2
 338 1158 l 2
EndSplineSet
EndChar

StartChar: Q
Encoding: 71 81 81
Width: 676
VWidth: 0
Flags: HW
LayerCount: 2
Fore
SplineSet
273 1474 m 0
 496 1474 481 1004 481 793 c 2
 481 327 l 2
 481 252 464 162 404 107 c 1
 404 108 l 1
 384 108 358 99 348 82 c 1
 348 80 l 1
 171 95 157 522 157 653 c 0
 157 775 166 1474 273 1474 c 0
593 659 m 0
 593 979 634 1576 290 1576 c 0
 86 1576 64 1265 64 1052 c 0
 64 994 66 943 66 908 c 0
 66 797 56 685 56 574 c 0
 56 359 82 149 276 20 c 1
 360 20 l 1
 379 -69 376 -207 474 -252 c 1
 474 -253 l 1
 500 -268 528 -282 559 -282 c 0
 600 -282 650 -270 650 -219 c 0
 650 -171 598 -169 562 -169 c 0
 559 -169 557 -169 554 -169 c 0
 498 -169 477 27 467 70 c 1
 586 236 593 369 593 567 c 0
 593 596 593 627 593 659 c 0
EndSplineSet
EndChar

StartChar: R
Encoding: 72 82 82
Width: 548
VWidth: 0
Flags: HW
LayerCount: 2
Fore
SplineSet
187 859 m 1
 253 598 374 299 390 41 c 1
 390 34 l 1
 407 8 430 -21 464 -21 c 0
 515 -21 514 35 514 71 c 2
 514 76 l 1
 443 299 306 648 303 876 c 1
 346 985 398 1097 398 1217 c 0
 398 1370 317 1557 140 1557 c 0
 91 1557 86 1541 86 1513 c 2
 86 1261 l 2
 86 861 78 460 78 60 c 2
 78 44 l 2
 78 12 99 -13 130 -13 c 0
 181 -13 187 17 187 52 c 2
 187 859 l 1
283 1207 m 2
 251 1030 l 1
 230 1002 207 975 182 951 c 1
 180 982 180 1014 180 1045 c 0
 180 1184 190 1324 191 1463 c 1
 261 1449 294 1265 283 1207 c 2
EndSplineSet
EndChar

StartChar: S
Encoding: 73 83 87
Width: 523
VWidth: 0
Flags: HW
LayerCount: 2
Fore
SplineSet
180 1290 m 0
 180 1360 215 1468 297 1476 c 1
 320 1460 349 1456 377 1456 c 1
 412 1500 l 1
 393 1545 339 1574 291 1574 c 0
 137 1574 63 1408 63 1275 c 0
 63 940 356 690 356 355 c 0
 356 268 310 48 197 48 c 0
 165 48 128 79 84 79 c 0
 52 79 38 52 38 24 c 0
 38 -31 157 -45 197 -45 c 0
 389 -45 477 179 477 342 c 0
 477 751 180 939 180 1290 c 0
EndSplineSet
EndChar

StartChar: T
Encoding: 74 84 92
Width: 492
VWidth: 0
Flags: HW
LayerCount: 2
Fore
SplineSet
317 925 m 0
 317 1013 321 1102 321 1189 c 0
 321 1273 317 1357 307 1441 c 1
 314 1442 321 1442 328 1442 c 0
 352 1442 376 1438 401 1438 c 0
 433 1438 463 1457 463 1492 c 0
 463 1526 429 1550 397 1550 c 0
 340 1550 21 1539 21 1469 c 0
 21 1433 56 1413 88 1413 c 0
 125 1413 162 1422 199 1424 c 1
 214 1389 218 1311 218 1233 c 0
 218 1163 215 1093 215 1054 c 0
 215 841 243 629 243 416 c 0
 243 307 227 198 227 89 c 0
 227 48 242 -14 293 -14 c 0
 346 -14 352 46 352 86 c 0
 352 209 335 331 335 454 c 0
 335 615 317 765 317 925 c 0
EndSplineSet
EndChar

StartChar: Thorn
Encoding: 179 222 96
Width: 495
VWidth: 0
Flags: HW
LayerCount: 2
Fore
SplineSet
337 948 m 0
 337 804 286 699 182 601 c 1
 182 817 178 1033 178 1249 c 1
 184 1249 l 1
 313 1147 337 1117 337 948 c 0
64 1297 m 1
 64 884 86 471 86 58 c 0
 86 29 99 -11 135 -11 c 0
 186 -11 203 29 203 74 c 0
 203 217 188 359 187 502 c 1
 361 595 443 773 443 965 c 0
 443 1128 362 1327 181 1353 c 1
 181 1370 183 1396 183 1424 c 0
 183 1483 173 1548 113 1548 c 0
 74 1548 62 1522 62 1487 c 2
 64 1297 l 1
EndSplineSet
EndChar

StartChar: U
Encoding: 75 85 97
Width: 699
VWidth: 0
Flags: HW
LayerCount: 2
Fore
SplineSet
54 1435 m 1
 54 1342 52 1232 52 1115 c 0
 52 607 84 -37 423 -37 c 0
 605 -37 625 137 625 288 c 0
 625 663 588 989 588 1338 c 0
 588 1380 602 1421 603 1463 c 1
 603 1497 l 1
 553 1545 l 1
 521 1545 476 1525 476 1489 c 0
 476 1372 491 1255 491 1138 c 0
 491 1098 495 1059 495 1019 c 2
 495 1005 l 2
 495 876 521 748 521 619 c 2
 521 219 l 2
 521 160 520 35 436 35 c 0
 295 35 220 335 220 444 c 0
 220 492 209 641 191 682 c 1
 191 919 172 1157 172 1394 c 0
 172 1443 166 1540 98 1540 c 0
 65 1540 39 1509 39 1477 c 0
 39 1462 44 1446 54 1435 c 1
EndSplineSet
EndChar

StartChar: V
Encoding: 76 86 107
Width: 620
VWidth: 0
Flags: HW
LayerCount: 2
Fore
SplineSet
88 1563 m 0
 160 1563 303 490 334 339 c 1
 379 733 459 1130 459 1528 c 1
 478 1552 503 1569 534 1569 c 1
 577 1546 l 1
 556 1356 413 -34 350 -34 c 0
 332 -34 314 -26 302 -12 c 1
 212 359 105 1167 31 1523 c 1
 39 1549 62 1563 88 1563 c 0
EndSplineSet
EndChar

StartChar: W
Encoding: 77 87 108
Width: 901
VWidth: 0
Flags: HW
LayerCount: 2
Fore
SplineSet
697 43 m 0
 697 523 852 1011 852 1489 c 1
 864 1501 873 1519 873 1536 c 0
 873 1569 840 1592 810 1592 c 0
 747 1592 736 1561 736 1506 c 0
 736 1155 668 809 633 461 c 1
 587 740 485 1011 484 1297 c 1
 484 1328 l 2
 484 1374 450 1388 411 1388 c 0
 382 1388 357 1353 357 1325 c 2
 357 1286 l 2
 357 1115 301 694 279 503 c 1
 258 645 207 1540 97 1540 c 0
 66 1540 40 1517 26 1491 c 1
 58 1413 218 250 218 127 c 0
 218 76 221 -29 293 -29 c 0
 322 -29 352 -2 352 28 c 0
 352 318 390 606 430 893 c 1
 449 788 547 -28 636 -28 c 0
 679 -28 697 5 697 43 c 0
EndSplineSet
EndChar

StartChar: X
Encoding: 78 88 109
Width: 520
VWidth: 0
Flags: HW
LayerCount: 2
Fore
SplineSet
276 1087 m 1
 258 1173 213 1520 135 1520 c 0
 109 1520 89 1500 79 1478 c 1
 79 1473 l 2
 79 1262 210 1045 210 819 c 0
 210 606 38 221 38 33 c 0
 38 5 68 -13 93 -13 c 0
 197 -13 243 438 267 538 c 1
 302 385 350 231 350 73 c 0
 350 38 379 24 410 24 c 0
 440 24 466 50 466 80 c 0
 466 134 436 182 432 236 c 1
 432 248 l 1
 420 309 326 765 326 796 c 0
 326 929 479 1399 479 1505 c 0
 479 1536 444 1550 418 1550 c 0
 339 1550 296 1158 276 1087 c 1
EndSplineSet
EndChar

StartChar: Y
Encoding: 79 89 110
Width: 453
VWidth: 0
Flags: HW
LayerCount: 2
Fore
SplineSet
240 1006 m 1
 215 1093 150 1549 77 1549 c 0
 56 1549 25 1534 25 1513 c 0
 25 1267 183 1025 183 776 c 0
 183 656 222 541 222 421 c 0
 222 289 212 157 212 25 c 0
 212 -3 237 -25 264 -25 c 0
 298 -25 332 -2 332 35 c 2
 332 81 l 1
 333 115 325 149 325 183 c 0
 325 364 314 545 314 726 c 2
 314 757 l 1
 313 781 320 804 320 828 c 0
 320 1062 418 1287 418 1517 c 0
 418 1539 378 1539 364 1539 c 0
 266 1539 256 1088 240 1006 c 1
EndSplineSet
EndChar

StartChar: Z
Encoding: 80 90 113
Width: 429
VWidth: 0
Flags: HW
LayerCount: 2
Fore
SplineSet
161 85 m 1
 266 494 388 1051 388 1505 c 0
 388 1536 364 1564 332 1564 c 0
 268 1564 203 1543 139 1543 c 0
 119 1543 100 1545 81 1550 c 1
 81 1549 l 1
 53 1515 l 1
 53 1506 l 2
 53 1453 107 1441 164 1441 c 0
 209 1441 256 1449 281 1451 c 1
 267 1235 137 197 34 31 c 1
 44 5 61 -19 92 -19 c 0
 176 -19 261 -11 345 -11 c 1
 377 21 l 1
 377 30 l 2
 377 81 324 93 269 93 c 0
 227 93 184 86 161 85 c 1
EndSplineSet
EndChar

StartChar: a
Encoding: 87 97 117
Width: 621
VWidth: 0
Flags: HW
LayerCount: 2
Fore
SplineSet
411 375 m 1
 367 378 265 385 230 408 c 1
 248 551 307 897 350 1134 c 1
 370 907 405 680 405 451 c 0
 405 425 406 400 411 375 c 1
424 302 m 1
 424 302 454 136 454 49 c 0
 454 -10 496 -19 545 -19 c 1
 568 -10 579 15 579 39 c 2
 579 41 l 2
 579 99 540 239 540 290 c 0
 540 330 518 376 518 416 c 0
 518 693 435 1016 435 1321 c 0
 435 1359 397 1373 365 1373 c 2
 296 1373 l 1
 259 1317 261 1169 252 1100 c 0
 207 759 134 397 47 62 c 0
 46 57 42 49 42 44 c 0
 42 11 77 -11 107 -11 c 0
 197 -11 178 174 222 332 c 1
 424 302 l 1
EndSplineSet
EndChar

StartChar: acute
Encoding: 137 180 121
Width: 453
VWidth: 0
Flags: HW
LayerCount: 2
Fore
SplineSet
52 1339 m 0
 44 1332 41 1325 41 1318 c 0
 41 1303 57 1291 74 1291 c 0
 80 1291 85 1292 91 1295 c 0
 167 1335 329 1424 389 1468 c 0
 399 1475 404 1487 404 1500 c 0
 404 1534 371 1577 337 1577 c 0
 331 1577 326 1575 320 1573 c 1
 272 1528 136 1417 52 1339 c 0
EndSplineSet
EndChar

StartChar: ae
Encoding: 187 230 123
Width: 879
VWidth: 0
Flags: HW
LayerCount: 2
Fore
SplineSet
493 -13 m 0
 507 -13 537 -14 573 -14 c 0
 681 -14 850 -7 850 53 c 0
 850 87 811 103 782 103 c 0
 706 103 631 83 555 82 c 1
 555 254 550 426 549 598 c 1
 628 597 l 2
 634 597 642 597 650 597 c 0
 691 597 750 602 750 647 c 1
 708 685 l 1
 655 685 603 678 550 676 c 1
 550 773 556 869 556 966 c 0
 556 1058 544 1149 542 1240 c 1
 607 1240 672 1240 736 1250 c 1
 757 1292 l 1
 757 1298 l 2
 757 1345 707 1354 670 1354 c 0
 616 1354 565 1351 512 1344 c 0
 427 1332 419 1247 396 1180 c 0
 316 949 44 246 44 48 c 0
 44 27 61 1 84 1 c 0
 152 1 165 177 179 226 c 2
 280 571 l 1
 337 590 398 588 457 593 c 1
 457 480 467 366 467 253 c 0
 467 175 451 96 451 19 c 0
 451 -1 477 -13 493 -13 c 0
453 666 m 1
 403 655 351 650 300 648 c 1
 340 797 401 940 459 1083 c 1
 461 1040 461 996 461 953 c 0
 461 857 455 762 453 666 c 1
EndSplineSet
EndChar

StartChar: ampersand
Encoding: 28 38 126
Width: 903
VWidth: 0
Flags: HW
LayerCount: 2
Fore
SplineSet
309 1291 m 2
 309 1400 l 1
 325 1436 343 1450 361 1450 c 0
 412 1450 462 1334 462 1291 c 0
 462 1213 370 1065 312 993 c 1
 312 1016 l 2
 312 1108 309 1199 309 1291 c 2
803 722 m 1
 752 705 627 696 571 696 c 1
 571 644 l 1
 580 624 582 609 605 609 c 1
 605 600 l 2
 605 477 591 352 541 238 c 1
 465 318 336 734 336 846 c 0
 336 876 373 917 388 944 c 1
 492 1065 554 1188 554 1360 c 0
 554 1463 440 1544 344 1544 c 0
 275 1544 216 1502 216 1396 c 2
 216 1226 l 2
 216 1132 229 1039 230 945 c 1
 121 733 48 600 48 354 c 0
 48 202 165 18 331 18 c 0
 419 18 490 47 562 96 c 1
 621 53 686 19 760 19 c 0
 809 19 864 26 864 87 c 1
 826 118 l 1
 798 118 771 112 743 112 c 0
 693 112 647 140 613 175 c 1
 696 285 697 516 697 613 c 1
 748 613 l 2
 750 613 752 612 754 612 c 0
 792 612 861 621 861 668 c 0
 861 701 831 716 803 722 c 1
251 789 m 1
 291 546 368 347 499 158 c 1
 470 128 390 103 349 103 c 0
 197 103 143 262 143 389 c 0
 143 528 176 671 251 789 c 1
EndSplineSet
EndChar

StartChar: asciicircum
Encoding: 84 94 129
Width: 280
VWidth: 0
Flags: HW
LayerCount: 2
Fore
SplineSet
73 1575 m 0
 73 1534 109 1515 146 1515 c 0
 184 1515 210 1546 210 1583 c 0
 210 1623 176 1656 136 1656 c 0
 93 1656 73 1612 73 1575 c 0
EndSplineSet
EndChar

StartChar: asterisk
Encoding: 32 42 130
Width: 1051
VWidth: 0
Flags: HW
LayerCount: 2
Fore
SplineSet
583 1194 m 1
 613 1268 706 1444 706 1512 c 0
 706 1542 678 1567 649 1567 c 0
 577 1567 516 1317 496 1258 c 1
 471 1307 401 1547 345 1547 c 0
 318 1547 289 1531 289 1501 c 0
 289 1455 398 1250 425 1196 c 1
 182 1196 l 2
 156 1196 136 1175 136 1150 c 0
 136 1092 169 1096 214 1096 c 2
 439 1096 l 1
 410 1012 288 817 283 745 c 1
 284 736 l 1
 328 690 l 1
 377 690 l 1
 434 782 471 910 511 1011 c 1
 598 821 l 1
 600 776 619 700 676 700 c 0
 705 700 728 723 728 752 c 0
 728 819 606 1015 576 1094 c 1
 665 1094 754 1085 843 1085 c 0
 878 1085 914 1096 914 1137 c 0
 914 1187 865 1199 810 1199 c 0
 759 1199 702 1189 675 1189 c 0
 644 1189 614 1190 583 1194 c 1
EndSplineSet
EndChar

StartChar: at
Encoding: 54 64 131
Width: 1030
VWidth: 0
Flags: HW
LayerCount: 2
Fore
SplineSet
430 -120 m 0
 744 -120 894 72 894 130 c 0
 894 142 888 150 876 150 c 0
 794 150 730 -31 434 -31 c 0
 144 -31 136 688 136 930 c 0
 136 943 136 956 136 966 c 0
 136 993 136 1021 136 1050 c 0
 136 1300 152 1612 468 1612 c 0
 813 1612 870 1092 870 776 c 0
 870 723 865 536 817 510 c 1
 788 556 l 1
 788 565 l 1
 759 818 759 1351 491 1351 c 0
 262 1351 258 1047 258 851 c 0
 258 661 260 306 487 306 c 0
 578 306 662 398 706 519 c 1
 734 459 770 406 809 406 c 0
 981 406 985 645 985 767 c 0
 985 1150 906 1719 478 1719 c 0
 23 1719 15 1262 15 956 c 0
 15 685 17 -120 430 -120 c 0
491 1246 m 0
 612 1246 638 875 638 759 c 2
 638 605 l 2
 638 550 565 410 503 410 c 0
 409 410 365 617 365 825 c 0
 365 1035 409 1246 491 1246 c 0
EndSplineSet
EndChar

StartChar: b
Encoding: 88 98 133
Width: 491
VWidth: 0
Flags: HW
LayerCount: 2
Fore
SplineSet
194 1068 m 2
 194 1128 199 1247 218 1288 c 1
 303 1278 302 1076 302 1012 c 0
 302 939 296 766 194 763 c 1
 194 1068 l 2
188 333 m 0
 188 436 190 540 197 643 c 1
 312 619 321 400 321 308 c 0
 321 217 282 107 183 84 c 1
 183 176 l 2
 183 179 181 183 181 186 c 0
 181 231 188 278 188 333 c 0
336 705 m 1
 397 791 419 883 419 1028 c 0
 419 1212 345 1383 150 1383 c 0
 92 1383 83 1338 83 1290 c 2
 83 1279 l 1
 85 1244 94 1208 94 1173 c 0
 94 957 85 740 85 524 c 0
 85 378 65 234 65 88 c 0
 65 42 67 -20 129 -20 c 0
 349 -20 431 167 431 360 c 0
 431 475 425 620 336 705 c 1
EndSplineSet
EndChar

StartChar: backslash
Encoding: 82 92 134
Width: 511
VWidth: 0
Flags: HW
LayerCount: 2
Fore
SplineSet
477 31 m 0
 477 127 210 1555 91 1555 c 0
 63 1555 36 1535 36 1505 c 0
 36 1439 64 1376 78 1312 c 0
 115 1145 309 -31 431 -31 c 1
 431 -30 l 1
 452 -17 477 6 477 31 c 0
EndSplineSet
EndChar

StartChar: bar
Encoding: 114 124 135
Width: 467
VWidth: 0
Flags: HW
LayerCount: 2
Fore
SplineSet
143 114 m 0
 143 82 142 -80 194 -80 c 0
 222 -80 246 -57 246 -29 c 2
 246 379 l 2
 246 763 242 1148 242 1533 c 0
 242 1556 226 1584 200 1584 c 0
 152 1584 129 1556 129 1510 c 0
 129 1045 143 580 143 114 c 0
EndSplineSet
EndChar

StartChar: braceleft
Encoding: 113 123 136
Width: 649
VWidth: 0
Flags: HW
LayerCount: 2
Fore
SplineSet
443 -48 m 0
 481 -48 566 -36 566 16 c 0
 566 25 561 62 549 62 c 0
 507 62 470 39 428 39 c 0
 346 39 336 118 336 182 c 2
 336 622 l 2
 336 672 334 728 302 768 c 1
 331 806 338 875 338 947 c 0
 338 1024 330 1106 330 1157 c 0
 330 1222 330 1408 428 1408 c 0
 463 1408 494 1389 529 1389 c 0
 556 1389 586 1404 586 1435 c 0
 586 1482 477 1495 443 1495 c 0
 306 1495 238 1399 238 1280 c 0
 238 1262 240 1244 243 1226 c 1
 233 1209 230 1173 230 1130 c 0
 230 1054 240 958 240 916 c 0
 240 754 101 866 101 766 c 0
 101 673 240 785 240 621 c 2
 240 198 l 2
 240 52 278 -48 443 -48 c 0
EndSplineSet
EndChar

StartChar: braceright
Encoding: 115 125 137
Width: 649
VWidth: 0
Flags: HW
LayerCount: 2
Fore
SplineSet
244 1495 m 0
 206 1495 121 1483 121 1431 c 0
 121 1422 126 1385 138 1385 c 0
 180 1385 217 1408 259 1408 c 0
 341 1408 358 1267 358 1127 c 0
 358 1021 348 915 348 875 c 0
 348 825 353 770 385 729 c 1
 355 691 347 615 347 534 c 0
 347 443 357 346 357 289 c 0
 357 224 356 39 259 39 c 0
 224 39 193 58 158 58 c 0
 131 58 101 43 101 12 c 0
 101 -35 210 -48 244 -48 c 0
 381 -48 448 47 448 166 c 0
 448 184 447 202 444 221 c 1
 453 236 455 279 455 330 c 0
 455 421 447 538 447 581 c 0
 447 745 576 630 576 731 c 0
 576 821 447 712 447 876 c 2
 446 1249 l 2
 445 1394 407 1495 244 1495 c 0
EndSplineSet
EndChar

StartChar: bracketleft
Encoding: 81 91 138
Width: 467
VWidth: 0
Flags: HW
LayerCount: 2
Fore
SplineSet
152 48 m 2
 152 502 232 987 232 1458 c 0
 232 1478 257 1478 270 1478 c 0
 309 1478 346 1465 385 1465 c 0
 411 1465 441 1481 441 1511 c 0
 441 1572 297 1577 255 1577 c 2
 177 1577 l 1
 143 1563 136 1548 136 1519 c 0
 136 1508 138 1495 138 1480 c 0
 138 1142 85 808 85 470 c 0
 85 301 42 134 42 -35 c 0
 42 -108 238 -112 289 -112 c 0
 316 -112 355 -103 355 -68 c 0
 355 2 237 6 173 6 c 0
 165 6 158 6 152 6 c 1
 152 48 l 2
EndSplineSet
EndChar

StartChar: bracketright
Encoding: 83 93 139
Width: 472
VWidth: 0
Flags: HW
LayerCount: 2
Fore
SplineSet
185 -112 m 0
 236 -112 433 -108 433 -35 c 0
 433 148 392 327 392 510 c 0
 392 835 336 1156 336 1481 c 0
 336 1569 316 1578 267 1578 c 0
 255 1578 241 1577 225 1577 c 0
 182 1577 32 1573 32 1511 c 0
 32 1471 75 1465 106 1465 c 0
 151 1465 195 1475 240 1476 c 1
 240 1458 l 2
 240 986 308 519 321 48 c 1
 321 6 l 1
 269 5 118 11 118 -68 c 0
 118 -103 156 -112 185 -112 c 0
EndSplineSet
EndChar

StartChar: breve
Encoding: 370 728 140
Width: 576
VWidth: 0
Flags: HW
LayerCount: 2
Fore
SplineSet
458 1032 m 1
 454 1048 l 1
 456 1055 462 1075 462 1081 c 0
 462 1110 436 1133 408 1133 c 0
 350 1133 350 1088 350 1043 c 0
 350 1025 325 962 304 962 c 2
 260 962 l 1
 204 1001 223 1142 152 1142 c 1
 114 1110 l 1
 114 1100 l 2
 114 992 159 867 286 867 c 0
 395 867 421 945 458 1031 c 1
 458 1032 l 1
EndSplineSet
EndChar

StartChar: brokenbar
Encoding: 123 166 141
Width: 325
VWidth: 0
Flags: HW
LayerCount: 2
Fore
SplineSet
112 1020 m 0
 112 988 111 826 163 826 c 0
 191 826 215 849 215 877 c 2
 218 1285 l 2
 218 1304 220 1346 220 1393 c 0
 220 1481 213 1584 175 1584 c 0
 127 1584 104 1556 104 1510 c 0
 104 1348 112 1183 112 1020 c 0
157 695 m 0
 131 695 115 668 115 644 c 2
 114 339 l 1
 117 -29 l 2
 117 -57 141 -80 169 -80 c 0
 208 -80 220 -50 220 -16 c 2
 218 621 l 2
 218 662 203 695 157 695 c 0
EndSplineSet
EndChar

StartChar: bullet
Encoding: 392 8226 142
Width: 637
VWidth: 0
Flags: HW
LayerCount: 2
Fore
SplineSet
105 727 m 0
 105 814 144 878 174 920 c 1
 187 947 271 1011 301 1011 c 0
 491 1011 537 866 537 779 c 0
 537 694 500 485 310 485 c 0
 196 485 106 595 106 665 c 0
 106 687 105 705 105 727 c 0
EndSplineSet
EndChar

StartChar: c
Encoding: 89 99 143
Width: 505
VWidth: 0
Flags: HW
LayerCount: 2
Fore
SplineSet
396 1364 m 0
 54 1364 46 1005 46 664 c 0
 46 648 46 631 46 615 c 0
 46 569 47 527 47 495 c 0
 47 359 55 97 183 14 c 0
 214 -6 290 -29 355 -29 c 0
 416 -29 468 -9 468 52 c 0
 468 85 434 97 406 97 c 1
 394 86 378 79 362 79 c 0
 180 79 168 286 168 422 c 0
 168 554 177 685 177 817 c 2
 177 827 l 2
 177 913 199 1258 319 1258 c 2
 415 1258 l 1
 441 1260 459 1286 459 1312 c 0
 459 1338 441 1364 396 1364 c 0
EndSplineSet
EndChar

StartChar: caron
Encoding: 369 711 145
Width: 498
VWidth: 0
Flags: HW
LayerCount: 2
Fore
SplineSet
94 1317 m 0
 94 1253 220 928 279 928 c 0
 318 928 331 960 331 994 c 0
 331 1050 389 1240 389 1252 c 2
 389 1289 l 1
 391 1298 404 1310 404 1320 c 0
 404 1347 384 1363 361 1363 c 0
 291 1363 288 1148 271 1051 c 1
 252 1105 196 1356 143 1356 c 0
 118 1356 94 1339 94 1317 c 0
EndSplineSet
EndChar

StartChar: cedilla
Encoding: 141 184 149
Width: 404
VWidth: 0
Flags: HW
LayerCount: 2
Fore
SplineSet
185 -403 m 0
 156 -403 134 -381 104 -381 c 0
 80 -381 58 -400 58 -425 c 0
 58 -467 129 -484 180 -484 c 0
 265 -484 349 -397 349 -318 c 0
 349 -216 297 -112 140 -91 c 1
 142 -54 146 -18 153 18 c 1
 97 18 l 1
 91 -2 91 -20 91 -41 c 0
 91 -99 82 -151 82 -207 c 1
 85 -218 128 -219 164 -219 c 0
 228 -219 262 -264 262 -304 c 0
 262 -356 237 -403 185 -403 c 0
EndSplineSet
EndChar

StartChar: cent
Encoding: 119 162 150
Width: 613
VWidth: 0
Flags: HW
LayerCount: 2
Fore
SplineSet
218 1125 m 1
 263 897 275 656 276 424 c 1
 157 444 153 699 153 790 c 0
 153 882 166 1049 218 1125 c 1
284 203 m 1
 284 157 292 111 292 65 c 0
 292 49 291 32 288 15 c 1
 326 -20 l 1
 335 -20 l 2
 361 -20 383 2 383 28 c 0
 383 93 369 157 369 222 c 0
 369 249 373 275 377 301 c 1
 443 307 581 373 581 451 c 0
 581 492 563 511 522 511 c 1
 483 452 448 395 370 391 c 1
 369 395 368 399 368 403 c 0
 368 411 370 420 370 428 c 0
 370 676 314 921 309 1169 c 1
 314 1169 l 1
 372 1140 l 1
 383 1112 408 1084 440 1084 c 0
 464 1084 482 1114 482 1135 c 2
 482 1140 l 1
 484 1140 l 1
 477 1218 359 1236 300 1254 c 1
 295 1293 290 1332 290 1371 c 0
 290 1393 292 1414 295 1436 c 1
 265 1456 l 1
 258 1456 l 2
 212 1456 206 1403 206 1368 c 0
 206 1330 213 1292 217 1254 c 1
 59 1156 54 943 54 777 c 0
 54 560 57 402 289 313 c 1
 289 276 281 239 281 202 c 1
 284 203 l 1
EndSplineSet
EndChar

StartChar: circumflex
Encoding: 368 710 151
Width: 516
VWidth: 0
Flags: HW
LayerCount: 2
Fore
SplineSet
137 911 m 0
 186 911 263 1164 273 1193 c 1
 289 1125 293 907 363 907 c 0
 392 907 423 930 423 964 c 0
 423 1060 342 1359 290 1359 c 0
 215 1359 93 1045 93 976 c 0
 93 938 116 911 137 911 c 0
EndSplineSet
EndChar

StartChar: colon
Encoding: 48 58 152
Width: 443
VWidth: 0
Flags: HW
LayerCount: 2
Fore
SplineSet
138 250 m 0
 138 213 169 177 207 177 c 0
 252 177 287 206 287 252 c 0
 287 290 254 329 215 329 c 0
 174 329 138 291 138 250 c 0
159 1024 m 0
 159 987 189 951 227 951 c 0
 272 951 308 979 308 1026 c 0
 308 1064 274 1103 235 1103 c 0
 194 1103 159 1064 159 1024 c 0
EndSplineSet
EndChar

StartChar: comma
Encoding: 34 44 153
Width: 451
VWidth: 0
Flags: HW
LayerCount: 2
Fore
SplineSet
273 185 m 4
 174 185 207 -36 127 -130 c 4
 108 -146 102 -163 102 -175 c 4
 102 -192 116 -202 132 -202 c 4
 237 -202 344 -15 344 77 c 4
 344 141 323 185 273 185 c 4
EndSplineSet
EndChar

StartChar: commaaccent
Encoding: 420 -1 154
Width: 462
VWidth: 0
Flags: HW
LayerCount: 2
Fore
SplineSet
151 -550 m 0
 185 -550 358 -317 358 -215 c 0
 358 -183 316 -185 302 -174 c 1
 183 -174 117 -527 117 -527 c 1
 117 -544 127 -550 151 -550 c 0
EndSplineSet
EndChar

StartChar: copyright
Encoding: 126 169 155
Width: 1207
VWidth: 0
Flags: HW
LayerCount: 2
Fore
SplineSet
98 924 m 0
 98 836 105 748 110 660 c 0
 130 311 143 -20 588 -20 c 0
 1028 -20 1111 403 1111 757 c 0
 1111 1105 1001 1812 539 1812 c 0
 148 1812 98 1208 98 924 c 0
215 940 m 1
 215 1160 257 1713 563 1713 c 0
 608 1713 647 1683 681 1658 c 0
 860 1528 919 1328 958 1121 c 0
 972 1046 997 971 997 894 c 2
 997 589 l 2
 997 558 973 516 973 483 c 0
 973 476 974 470 976 464 c 1
 921 234 819 81 562 81 c 0
 261 81 249 366 235 595 c 0
 228 710 216 825 216 940 c 1
 215 940 l 1
441 911 m 1
 437 921 l 1
 449 1026 450 1387 603 1387 c 0
 693 1387 685 1223 785 1223 c 0
 814 1223 835 1247 835 1275 c 0
 835 1380 696 1499 594 1499 c 0
 314 1499 311 1028 311 825 c 0
 311 821 311 817 311 813 c 0
 311 570 324 504 436 291 c 1
 500 265 557 225 628 225 c 0
 702 225 854 283 854 372 c 0
 854 404 837 440 800 440 c 0
 734 440 716 332 618 332 c 0
 444 332 431 629 431 758 c 0
 431 782 431 799 431 809 c 0
 431 844 432 878 440 911 c 1
 441 911 l 1
EndSplineSet
EndChar

StartChar: currency
Encoding: 121 164 156
Width: 895
VWidth: 0
Flags: HW
LayerCount: 2
Fore
SplineSet
679 251 m 1
 683 212 722 195 757 195 c 0
 785 195 807 219 807 247 c 0
 807 308 730 335 730 396 c 0
 730 525 797 643 797 772 c 0
 797 902 707 1019 707 1141 c 0
 707 1165 798 1241 802 1304 c 1
 759 1351 l 1
 749 1351 l 2
 681 1351 654 1260 620 1216 c 1
 554 1259 477 1285 398 1285 c 0
 356 1285 295 1202 268 1172 c 1
 241 1209 212 1255 160 1255 c 0
 135 1255 112 1235 112 1209 c 0
 112 1160 186 1119 209 1078 c 1
 141 977 137 692 137 567 c 0
 137 507 140 446 169 392 c 1
 148 360 83 315 83 276 c 0
 83 236 103 201 147 201 c 0
 196 201 216 253 233 290 c 1
 281 243 346 205 415 205 c 0
 502 205 589 235 654 293 c 1
 679 248 l 1
 679 251 l 1
247 696 m 1
 247 774 278 1009 303 1009 c 0
 344 1009 350 1055 350 1086 c 1
 335 1100 l 1
 351 1121 416 1181 442 1181 c 0
 486 1181 535 1165 565 1132 c 1
 568 1103 588 1077 617 1071 c 1
 653 1027 678 840 678 779 c 0
 678 640 641 305 451 305 c 0
 374 305 301 332 301 421 c 1
 254 462 247 527 247 585 c 0
 247 614 252 641 252 669 c 0
 252 678 251 687 250 696 c 1
 247 696 l 1
EndSplineSet
EndChar

StartChar: d
Encoding: 90 100 157
Width: 610
VWidth: 0
Flags: HW
LayerCount: 2
Fore
SplineSet
55 1286 m 0
 55 1184 79 1027 79 901 c 0
 79 686 73 471 73 256 c 0
 73 190 75 -12 125 -12 c 2
 273 -12 l 1
 526 119 542 340 542 592 c 0
 542 629 542 667 542 705 c 0
 542 741 546 778 546 808 c 0
 546 1054 377 1353 127 1353 c 0
 93 1353 55 1322 55 1286 c 0
216 141 m 2
 216 443 185 743 185 1045 c 0
 185 1116 187 1188 200 1258 c 1
 432 1231 438 784 438 612 c 0
 438 480 420 92 216 92 c 1
 216 141 l 2
EndSplineSet
EndChar

StartChar: degree
Encoding: 133 176 159
Width: 728
VWidth: 0
Flags: HW
LayerCount: 2
Fore
SplineSet
101 731 m 0
 101 617 143 438 334 438 c 0
 579 438 627 649 627 733 c 0
 627 821 570 970 333 970 c 0
 192 970 101 867 101 731 c 0
343 901 m 0
 517 901 559 792 559 729 c 0
 559 668 524 515 342 515 c 0
 252 515 178 607 178 665 c 0
 178 773 213 901 343 901 c 0
EndSplineSet
EndChar

StartChar: dieresis
Encoding: 125 168 160
Width: 631
VWidth: 0
Flags: HW
LayerCount: 2
Fore
SplineSet
164 954 m 0
 203 954 246 984 246 1026 c 0
 246 1065 213 1095 175 1095 c 0
 134 1095 105 1061 105 1021 c 0
 105 984 125 954 164 954 c 0
385 1023 m 0
 385 988 413 954 449 954 c 0
 489 954 526 983 526 1025 c 0
 526 1061 495 1098 458 1098 c 0
 419 1098 385 1062 385 1023 c 0
EndSplineSet
EndChar

StartChar: divide
Encoding: 204 247 161
Width: 684
VWidth: 0
Flags: HW
LayerCount: 2
Fore
SplineSet
411 428 m 0
 411 467 381 510 339 510 c 0
 300 510 270 477 270 439 c 0
 270 398 304 369 344 369 c 0
 380 369 411 389 411 428 c 0
342 789 m 0
 377 789 411 817 411 853 c 0
 411 893 382 930 340 930 c 0
 304 930 267 899 267 862 c 0
 267 823 303 789 342 789 c 0
57 655 m 0
 57 604 94 590 139 590 c 0
 282 590 427 600 571 600 c 0
 601 600 629 613 629 647 c 0
 629 701 572 708 530 708 c 0
 488 708 446 701 404 701 c 2
 103 701 l 2
 75 701 57 683 57 655 c 0
EndSplineSet
EndChar

StartChar: dollar
Encoding: 26 36 162
Width: 519
VWidth: 0
Flags: HW
LayerCount: 2
Fore
SplineSet
276 1464 m 1
 346 1484 422 1456 483 1456 c 1
 518 1500 l 1
 499 1545 445 1574 397 1574 c 0
 351 1574 310 1568 272 1559 c 1
 272 1586 l 2
 272 1669 193 1701 200 1595 c 0
 201 1577 201 1557 202 1535 c 1
 66 1473 -1 1350 -1 1245 c 0
 -1 1073 115 924 225 774 c 1
 233 506 241 236 247 52 c 1
 236 49 225 48 213 48 c 0
 181 48 144 79 100 79 c 0
 68 79 54 52 54 24 c 0
 54 -31 173 -45 213 -45 c 0
 226 -45 238 -45 250 -43 c 1
 253 -128 254 -179 254 -179 c 1
 254 -195 l 2
 254 -222 256 -258 290 -258 c 0
 337 -258 351 -208 349 -155 c 1
 349 -10 l 1
 465 59 513 218 513 342 c 0
 513 540 409 685 305 822 c 1
 276 1464 l 1
220 937 m 1
 152 1035 98 1137 98 1258 c 0
 98 1308 129 1385 205 1433 c 1
 209 1298 214 1122 220 937 c 1
337 113 m 1
 313 647 l 1
 374 551 419 453 419 345 c 0
 419 291 394 183 337 113 c 1
EndSplineSet
EndChar

StartChar: dotaccent
Encoding: 371 729 163
Width: 355
VWidth: 0
Flags: HW
LayerCount: 2
Fore
SplineSet
103 175 m 0
 103 138 134 102 172 102 c 0
 217 102 253 130 253 177 c 0
 253 215 219 254 180 254 c 0
 139 254 103 216 103 175 c 0
EndSplineSet
EndChar

StartChar: uni0307
Encoding: 376 775 164
Width: 384
VWidth: 0
Flags: HW
LayerCount: 2
Fore
SplineSet
120 1463 m 0
 120 1426 151 1390 189 1390 c 0
 234 1390 270 1418 270 1465 c 0
 270 1503 236 1542 197 1542 c 0
 156 1542 120 1504 120 1463 c 0
EndSplineSet
EndChar

StartChar: dotlessi
Encoding: 260 305 165
Width: 499
VWidth: 0
Flags: HW
LayerCount: 2
Fore
SplineSet
298 184 m 1
 301 246 l 1
 301 391 286 536 286 681 c 0
 286 811 297 942 297 1072 c 0
 297 1129 295 1186 289 1242 c 1
 324 1230 l 1
 394 1235 l 1
 398 1244 406 1263 406 1273 c 0
 406 1355 199 1356 143 1356 c 0
 138 1356 132 1356 126 1356 c 0
 87 1356 25 1353 25 1309 c 0
 25 1262 55 1254 89 1254 c 0
 105 1254 121 1257 136 1256 c 2
 175 1254 l 1
 182 1182 185 1109 185 1036 c 0
 185 884 174 732 174 580 c 0
 174 435 188 290 188 145 c 0
 188 136 185 127 184 118 c 1
 126 118 l 1
 119 110 l 1
 98 100 87 78 87 55 c 1
 102 26 132 18 163 18 c 0
 171 18 180 19 188 20 c 1
 205 4 229 0 251 0 c 0
 288 0 313 23 329 23 c 0
 352 23 374 16 397 16 c 0
 432 16 465 43 465 79 c 0
 465 122 422 130 381 130 c 0
 358 130 337 128 322 128 c 1
 306 131 l 1
 295 147 296 166 296 185 c 1
 298 184 l 1
EndSplineSet
EndChar

StartChar: uni0237
Encoding: 367 567 166
Width: 520
VWidth: 0
Flags: HW
LayerCount: 2
Fore
SplineSet
352 158 m 1
 352 382 l 2
 352 657 331 933 331 1208 c 1
 332 1225 l 1
 367 1219 401 1205 436 1205 c 0
 464 1205 492 1222 492 1253 c 0
 492 1327 187 1359 127 1359 c 0
 103 1359 60 1342 60 1312 c 0
 60 1252 175 1247 217 1242 c 1
 222 1233 l 1
 222 884 240 536 240 187 c 0
 240 117 227 8 181 -46 c 1
 146 -64 19 -133 19 -174 c 1
 21 -193 l 1
 82 -254 l 1
 106 -254 l 2
 364 -254 276 33 352 158 c 1
EndSplineSet
EndChar

StartChar: e
Encoding: 91 101 168
Width: 455
VWidth: 0
Flags: HW
LayerCount: 2
Fore
SplineSet
406 1261 m 0
 406 1323 203 1352 161 1352 c 0
 84 1352 75 1266 75 1207 c 0
 75 1149 86 1092 86 1034 c 0
 86 835 72 635 72 436 c 0
 72 349 82 261 82 174 c 0
 82 145 85 117 85 90 c 2
 85 36 l 1
 87 1 121 -27 157 -27 c 2
 330 -27 l 2
 367 -27 418 -13 418 32 c 0
 418 73 380 82 340 82 c 0
 282 82 223 77 189 77 c 0
 188 77 185 139 185 192 c 0
 185 315 194 440 194 563 c 0
 194 615 192 666 188 718 c 1
 240 718 l 1
 256 716 278 714 298 714 c 4
 339 714 363 742 363 769 c 0
 363 816 313 825 264 825 c 0
 236 825 208 822 191 822 c 1
 189 832 185 844 185 854 c 0
 185 952 194 1050 194 1148 c 0
 194 1177 193 1207 191 1236 c 1
 244 1230 296 1214 346 1197 c 1
 373 1207 406 1229 406 1261 c 0
EndSplineSet
EndChar

StartChar: eight
Encoding: 46 56 174
Width: 531
VWidth: 0
Flags: HW
LayerCount: 2
Fore
SplineSet
204 863 m 0
 204 672 108 421 108 198 c 0
 108 98 140 -82 270 -82 c 0
 366 -82 427 -24 464 60 c 1
 464 61 l 1
 465 72 l 1
 469 87 466 103 466 119 c 0
 466 349 395 651 304 862 c 1
 338 1010 376 1160 376 1313 c 0
 376 1466 373 1530 248 1607 c 1
 205 1607 l 2
 102 1607 63 1510 63 1421 c 0
 63 1225 204 1040 204 863 c 0
203 190 m 2
 203 345 216 604 261 750 c 1
 318 552 372 348 372 140 c 0
 372 74 350 6 272 6 c 0
 245 6 231 50 229 71 c 1
 229 81 l 1
 213 115 203 151 203 188 c 2
 203 190 l 2
212 1515 m 1
 234 1516 l 1
 269 1516 285 1342 285 1312 c 0
 285 1209 268 1106 240 1007 c 1
 209 1101 163 1317 163 1413 c 0
 163 1449 166 1488 191 1516 c 1
 191 1515 l 1
 212 1515 l 1
EndSplineSet
EndChar

StartChar: ellipsis
Encoding: 393 8230 175
Width: 936
VWidth: 0
Flags: HW
LayerCount: 2
Fore
SplineSet
693 41 m 0
 693 4 724 -32 762 -32 c 0
 807 -32 843 -4 843 43 c 0
 843 81 809 120 770 120 c 0
 729 120 693 82 693 41 c 0
398 41 m 0
 398 4 429 -32 467 -32 c 0
 512 -32 548 -4 548 43 c 0
 548 81 514 120 475 120 c 0
 434 120 398 82 398 41 c 0
103 41 m 0
 103 4 134 -32 172 -32 c 0
 217 -32 253 -4 253 43 c 0
 253 81 219 120 180 120 c 0
 139 120 103 82 103 41 c 0
EndSplineSet
EndChar

StartChar: emdash
Encoding: 383 8212 177
Width: 1162
VWidth: 0
Flags: HW
LayerCount: 2
Fore
SplineSet
647 779 m 2
 170 779 l 2
 142 779 124 761 124 733 c 0
 124 683 188 674 247 674 c 0
 278 674 307 677 325 677 c 2
 693 680 l 2
 720 680 793 673 866 673 c 0
 953 673 1038 683 1038 725 c 0
 1038 773 910 782 799 782 c 0
 731 782 669 779 647 779 c 2
EndSplineSet
EndChar

StartChar: endash
Encoding: 382 8211 178
Width: 924
VWidth: 0
Flags: HW
LayerCount: 2
Fore
SplineSet
332 737 m 2
 161 737 l 2
 133 737 115 719 115 691 c 0
 115 649 166 646 197 646 c 0
 385 646 572 636 760 636 c 0
 788 636 808 654 808 683 c 0
 808 731 660 741 527 741 c 0
 441 741 361 737 332 737 c 2
EndSplineSet
EndChar

StartChar: eng
Encoding: 65539 331 179
Width: 827
VWidth: 0
Flags: HW
LayerCount: 2
Fore
SplineSet
603 189 m 1
 548 324 306 1354 166 1354 c 0
 161 1354 156 1352 151 1349 c 1
 151 1362 l 1
 97 1322 76 1274 76 1211 c 0
 76 1084 64 956 64 829 c 0
 64 595 68 361 68 127 c 0
 68 84 76 2 135 2 c 0
 169 2 197 32 197 66 c 0
 197 83 183 99 176 114 c 1
 176 1145 l 1
 230 1021 520 136 579 -1 c 1
 571 -80 572 -159 563 -237 c 0
 538 -454 381 -350 381 -449 c 0
 381 -493 415 -512 455 -512 c 0
 771 -512 748 636 750 1109 c 1
 750 1264 l 2
 750 1302 734 1344 692 1344 c 0
 649 1344 641 1315 641 1283 c 0
 641 1264 644 1244 644 1228 c 0
 644 881 636 534 603 189 c 1
EndSplineSet
EndChar

StartChar: equal
Encoding: 51 61 181
Width: 684
VWidth: 0
Flags: HW
LayerCount: 2
Fore
SplineSet
470 872 m 2
 103 872 l 2
 75 872 57 854 57 826 c 0
 57 776 121 767 180 767 c 0
 210 767 240 770 258 770 c 0
 261 770 334 764 413 764 c 0
 515 764 629 774 629 818 c 0
 629 866 539 872 470 872 c 2
410 680 m 2
 103 680 l 2
 75 680 57 662 57 634 c 0
 57 592 108 589 139 589 c 0
 283 589 427 579 571 579 c 0
 599 579 619 597 619 626 c 0
 619 674 508 680 410 680 c 2
EndSplineSet
EndChar

StartChar: eth
Encoding: 197 240 182
Width: 473
VWidth: 0
Flags: HW
LayerCount: 2
Fore
SplineSet
254 72 m 0
 329 72 320 160 324 211 c 0
 336 370 345 518 345 681 c 0
 345 761 338 853 286 885 c 1
 187 859 187 472 187 390 c 0
 187 378 186 354 186 325 c 0
 186 228 193 72 254 72 c 0
493 1326 m 0
 493 1289 414 1272 388 1267 c 1
 432 1062 440 850 440 641 c 0
 440 522 431 402 431 283 c 0
 431 159 424 -15 259 -15 c 0
 98 -15 88 173 88 305 c 1
 88 305 85 340 85 400 c 0
 85 581 109 956 299 956 c 0
 307 956 316 955 325 954 c 1
 312 1053 298 1153 277 1251 c 1
 221 1245 164 1242 108 1242 c 0
 95 1242 91 1265 91 1272 c 0
 91 1319 225 1336 257 1340 c 1
 248 1374 229 1450 201 1473 c 1
 168 1478 119 1499 119 1539 c 0
 119 1565 149 1582 172 1582 c 0
 285 1582 340 1441 366 1351 c 1
 403 1353 439 1355 476 1355 c 0
 489 1355 493 1333 493 1326 c 0
EndSplineSet
EndChar

StartChar: exclam
Encoding: 23 33 183
Width: 286
VWidth: 0
Flags: HW
LayerCount: 2
Fore
SplineSet
210 26 m 0
 210 77 181 125 126 125 c 0
 78 125 41 78 41 33 c 1
 41 -20 84 -46 109 -46 c 0
 165 -46 210 -27 210 26 c 0
184 446 m 0
 184 478 182 511 182 543 c 0
 182 870 225 1195 225 1522 c 0
 225 1550 203 1572 175 1572 c 0
 133 1572 88 1537 88 1493 c 0
 88 1269 98 1045 98 821 c 0
 98 713 90 596 90 482 c 0
 90 375 120 306 146 306 c 0
 166 306 184 348 184 446 c 0
EndSplineSet
EndChar

StartChar: f
Encoding: 92 102 185
Width: 483
VWidth: 0
Flags: HW
LayerCount: 2
Fore
SplineSet
201 753 m 1
 201 808 l 2
 201 945 219 1082 220 1219 c 1
 220 1243 l 1
 244 1243 l 2
 280 1243 318 1239 351 1223 c 1
 390 1223 455 1229 455 1281 c 0
 455 1358 240 1364 186 1364 c 0
 150 1364 107 1344 107 1303 c 0
 107 1210 104 1118 99 1025 c 1
 99 975 l 1
 82 655 88 333 59 13 c 1
 84 -6 110 -18 132 -18 c 0
 163 -18 185 6 185 72 c 2
 185 652 l 1
 207 645 243 640 266 640 c 0
 300 640 338 662 338 700 c 0
 338 747 283 754 239 754 c 0
 224 754 211 753 201 753 c 1
EndSplineSet
EndChar

StartChar: five
Encoding: 43 53 186
Width: 429
VWidth: 0
Flags: HW
LayerCount: 2
Fore
SplineSet
27 1008 m 0
 27 955 34 891 102 891 c 0
 331 891 335 585 335 328 c 0
 335 259 303 75 229 50 c 1
 214 61 195 67 176 67 c 0
 148 67 113 54 113 21 c 0
 113 -31 176 -37 225 -37 c 0
 238 -37 250 -36 260 -36 c 1
 433 95 433 234 433 434 c 0
 433 553 407 895 305 965 c 0
 260 996 192 996 139 1002 c 1
 123 1164 105 1325 99 1488 c 1
 186 1488 l 1
 186 1482 l 1
 237 1482 l 1
 275 1513 l 1
 275 1524 l 2
 275 1572 227 1576 190 1576 c 2
 23 1576 l 1
 -12 1540 l 1
 10 1398 38 1256 38 1112 c 0
 38 1077 27 1043 27 1008 c 0
EndSplineSet
EndChar

StartChar: foundryicon
Encoding: 419 -1 187
Width: 1251
VWidth: 0
Flags: HW
LayerCount: 2
Fore
SplineSet
604 375 m 2
 723 375 889 72 942 72 c 0
 963 72 975 86 975 106 c 0
 975 135 930 342 922 344 c 1
 909 389 881 457 881 510 c 2
 881 522 l 1
 978 570 1050 664 1128 735 c 1
 1147 750 1225 793 1225 807 c 0
 1225 838 1198 848 1171 848 c 0
 1110 848 1051 842 981 842 c 0
 909 842 836 844 778 848 c 1
 768 895 l 1
 750 971 715 1110 715 1188 c 0
 715 1206 684 1235 666 1235 c 0
 608 1235 594 1122 563 1075 c 1
 469 840 l 1
 279 848 l 1
 197 848 68 870 57 870 c 0
 33 870 18 860 18 840 c 0
 18 791 104 764 137 735 c 0
 213 668 295 604 354 522 c 1
 356 520 l 1
 356 518 354 516 354 516 c 1
 324 418 270 297 246 186 c 1
 240 168 231 160 231 141 c 0
 231 119 248 115 266 115 c 0
 293 115 373 201 397 221 c 1
 449 260 541 332 592 375 c 1
 604 375 l 2
EndSplineSet
EndChar

StartChar: four
Encoding: 42 52 188
Width: 554
VWidth: 0
Flags: HW
LayerCount: 2
Fore
SplineSet
288 1160 m 0
 288 983 270 780 269 587 c 1
 244 581 219 577 194 576 c 1
 192 591 191 607 191 622 c 0
 191 796 220 969 220 1143 c 0
 220 1179 218 1216 214 1252 c 1
 214 1259 l 1
 211 1271 210 1284 210 1296 c 0
 210 1308 211 1321 211 1333 c 0
 211 1386 220 1440 220 1492 c 0
 220 1524 188 1543 159 1543 c 0
 122 1543 120 1525 120 1503 c 2
 120 1124 l 2
 120 991 89 844 89 706 c 0
 89 666 91 628 98 591 c 1
 91 565 89 539 89 512 c 1
 113 493 138 479 169 479 c 1
 169 480 l 1
 206 480 244 489 281 491 c 1
 284 470 285 449 285 428 c 0
 285 398 283 369 283 339 c 0
 283 272 298 207 298 140 c 0
 298 115 294 90 287 66 c 1
 287 59 l 2
 287 23 306 -38 352 -38 c 0
 390 -38 400 9 400 39 c 2
 400 76 l 1
 392 89 391 103 391 117 c 0
 391 130 393 143 395 155 c 1
 380 190 374 436 374 489 c 0
 374 505 392 507 407 507 c 0
 443 507 489 513 489 557 c 0
 489 593 459 601 428 601 c 0
 406 601 384 597 369 596 c 1
 373 753 373 913 373 1072 c 0
 373 1105 373 1137 373 1170 c 1
 341 1206 l 1
 322 1206 288 1191 288 1160 c 0
EndSplineSet
EndChar

StartChar: fraction
Encoding: 397 8260 190
Width: 512
VWidth: 0
Flags: HW
LayerCount: 2
Fore
SplineSet
37 30 m 0
 37 5 54 -18 75 -31 c 1
 83 -31 l 2
 158 -31 192 233 205 292 c 0
 279 632 357 972 436 1311 c 0
 451 1374 478 1437 478 1503 c 0
 478 1533 451 1553 423 1553 c 0
 378 1553 372 1483 366 1453 c 0
 297 1099 37 340 37 30 c 0
EndSplineSet
EndChar

StartChar: g
Encoding: 93 103 191
Width: 638
VWidth: 0
Flags: HW
LayerCount: 2
Fore
SplineSet
338 -16 m 0
 452 -16 573 50 573 194 c 0
 573 266 563 341 563 411 c 0
 563 462 585 509 585 560 c 0
 585 619 465 623 401 623 c 2
 373 623 l 1
 373 624 l 1
 337 624 303 606 303 565 c 0
 303 524 339 518 374 518 c 0
 389 518 403 519 414 519 c 0
 431 519 447 519 462 511 c 1
 462 450 l 2
 462 442 462 430 462 417 c 0
 462 316 457 91 363 91 c 0
 175 91 168 434 168 629 c 0
 168 732 178 1252 327 1252 c 0
 341 1252 355 1247 370 1247 c 0
 401 1247 435 1268 435 1302 c 0
 435 1349 383 1354 348 1354 c 0
 32 1354 46 897 46 622 c 0
 46 356 44 -16 338 -16 c 0
EndSplineSet
EndChar

StartChar: germandbls
Encoding: 180 223 195
Width: 576
VWidth: 0
Flags: HW
LayerCount: 2
Fore
SplineSet
338 49 m 1
 457 143 520 294 520 444 c 0
 520 635 488 744 335 859 c 1
 407 977 461 1109 461 1249 c 0
 461 1367 428 1585 271 1585 c 0
 105 1585 73 1375 73 1249 c 0
 73 1012 88 775 88 538 c 0
 88 360 78 182 78 4 c 0
 78 -37 103 -47 138 -47 c 0
 195 -47 204 -2 204 46 c 0
 204 463 173 878 173 1294 c 0
 173 1350 193 1473 271 1473 c 0
 340 1473 361 1321 361 1274 c 0
 361 1106 243 898 243 854 c 0
 243 776 421 789 421 409 c 0
 421 240 274 134 274 81 c 0
 274 57 304 45 323 45 c 0
 327 45 334 48 338 49 c 1
EndSplineSet
EndChar

StartChar: grave
Encoding: 86 96 196
Width: 506
VWidth: 0
Flags: HW
LayerCount: 2
Fore
SplineSet
116 1752 m 0
 80 1752 48 1699 48 1672 c 0
 48 1645 388 1543 426 1543 c 0
 435 1543 441 1549 441 1557 c 0
 441 1599 131 1752 116 1752 c 0
EndSplineSet
EndChar

StartChar: greater
Encoding: 52 62 197
Width: 523
VWidth: 0
Flags: HW
LayerCount: 2
Fore
SplineSet
369 702 m 0
 369 654 45 116 45 24 c 0
 45 -6 67 -23 88 -23 c 0
 101 -23 113 -19 126 -19 c 1
 487 698 l 1
 484 788 254 1404 167 1444 c 1
 167 1446 l 1
 112 1411 l 1
 114 1202 369 908 369 702 c 0
EndSplineSet
EndChar

StartChar: guillemotleft
Encoding: 128 171 198
Width: 681
VWidth: 0
Flags: HW
LayerCount: 2
Fore
SplineSet
704 49 m 5
 678 69 l 5
 641 135 367 679 367 702 c 4
 367 869 598 1193 625 1411 c 5
 580 1446 l 5
 577 1446 575 1447 573 1447 c 4
 512 1447 485 1293 474 1255 c 4
 436 1125 253 798 250 698 c 5
 290 612 578 -8 610 -18 c 4
 622 -22 638 -22 650 -22 c 4
 687 -22 702 19 704 49 c 5
390 1440 m 1
 388 1473 355 1489 326 1489 c 0
 320 1489 313 1486 307 1485 c 1
 307 1483 l 1
 282 1456 250 1398 246 1361 c 1
 208 1261 -15 749 -15 697 c 0
 -15 607 344 -59 389 -59 c 0
 415 -59 453 -45 453 -13 c 0
 453 65 129 526 96 687 c 1
 210 929 283 1193 390 1440 c 1
EndSplineSet
EndChar

StartChar: guillemotright
Encoding: 144 187 199
Width: 682
VWidth: 0
Flags: HW
LayerCount: 2
Fore
SplineSet
74 -19 m 2
 431 698 l 1
 428 803 245 1123 207 1255 c 0
 187 1324 185 1410 111 1444 c 1
 101 1446 l 1
 56 1411 l 1
 58 1202 313 908 313 702 c 0
 313 680 39 136 3 69 c 1
 -22 49 l 1
 -21 19 -5 -23 32 -23 c 0
 45 -23 57 -19 70 -19 c 0
 71 -19 73 -19 74 -19 c 2
357 1490 m 4
 323 1490 295 1467 292 1433 c 5
 441 1211 473 928 588 689 c 5
 554 528 230 68 230 -10 c 4
 230 -43 269 -56 295 -56 c 4
 339 -56 698 610 698 700 c 4
 698 751 476 1264 438 1363 c 5
 433 1402 404 1457 376 1485 c 5
 375 1484 l 5
 375 1486 l 5
 372 1486 l 5
 368 1487 361 1490 357 1490 c 4
EndSplineSet
EndChar

StartChar: guilsinglleft
Encoding: 395 8249 200
Width: 524
VWidth: 0
Flags: HW
LayerCount: 2
Fore
SplineSet
491 49 m 1
 465 69 l 1
 428 135 154 679 154 702 c 0
 154 869 385 1193 412 1411 c 1
 367 1446 l 1
 364 1446 362 1447 360 1447 c 0
 299 1447 272 1293 261 1255 c 0
 223 1125 40 798 37 698 c 1
 149 465 252 197 393 -18 c 1
 408 -19 422 -22 437 -22 c 0
 474 -22 489 19 491 49 c 1
EndSplineSet
EndChar

StartChar: guilsinglright
Encoding: 396 8250 201
Width: 523
VWidth: 0
Flags: HW
LayerCount: 2
Fore
SplineSet
130 -19 m 2
 487 698 l 1
 484 803 301 1123 263 1255 c 0
 243 1324 241 1410 167 1444 c 1
 157 1446 l 1
 112 1411 l 1
 114 1202 369 908 369 702 c 0
 369 680 95 136 59 69 c 1
 34 49 l 1
 35 19 51 -23 88 -23 c 0
 101 -23 113 -19 126 -19 c 0
 127 -19 129 -19 130 -19 c 2
EndSplineSet
EndChar

StartChar: h
Encoding: 94 104 202
Width: 571
VWidth: 0
Flags: HW
LayerCount: 2
Fore
SplineSet
367 548 m 2
 367 400 344 0 434 0 c 0
 468 0 505 20 505 62 c 0
 503 208 466 912 466 1356 c 1
 446 1362 427 1374 406 1374 c 0
 376 1374 347 1351 347 1320 c 0
 347 1125 374 932 374 738 c 0
 374 729 373 719 369 712 c 1
 295 712 l 2
 258 712 220 712 183 722 c 1
 183 892 191 1063 191 1233 c 0
 191 1276 184 1355 126 1355 c 0
 94 1355 68 1325 68 1294 c 0
 68 1140 82 986 82 832 c 0
 82 792 77 752 74 712 c 1
 74 702 l 1
 80 681 77 643 77 595 c 0
 77 509 71 391 71 283 c 0
 71 134 83 5 143 5 c 0
 183 5 201 44 201 79 c 0
 201 191 189 304 189 416 c 2
 189 425 l 2
 189 500 188 576 189 651 c 1
 236 649 276 632 321 632 c 0
 333 632 345 633 358 636 c 1
 358 634 l 2
 358 628 370 621 370 615 c 0
 370 595 368 576 367 556 c 1
 367 548 l 2
EndSplineSet
EndChar

StartChar: hbar
Encoding: 250 295 203
Width: 571
VWidth: 0
Flags: HW
LayerCount: 2
Fore
SplineSet
374 738 m 0
 374 729 373 719 369 712 c 1
 295 712 l 2
 258 712 220 712 183 722 c 1
 183 835 186 949 189 1062 c 1
 216 1064 244 1065 271 1065 c 0
 302 1065 332 1065 358 1066 c 1
 365 957 374 847 374 738 c 0
485 1084 m 0
 485 1094 479 1103 469 1110 c 1
 467 1197 466 1280 466 1356 c 1
 446 1362 427 1374 406 1374 c 0
 376 1374 347 1351 347 1320 c 0
 347 1259 349 1198 353 1137 c 1
 328 1138 302 1139 277 1139 c 0
 245 1139 215 1138 190 1137 c 1
 191 1169 191 1201 191 1233 c 0
 191 1276 184 1355 126 1355 c 0
 94 1355 68 1325 68 1294 c 0
 68 1238 69 1182 72 1127 c 1
 55 1121 43 1109 43 1091 c 0
 43 1076 55 1068 75 1064 c 1
 78 986 82 909 82 832 c 0
 82 792 77 752 74 712 c 1
 69 702 l 1
 75 681 77 643 77 595 c 0
 77 509 71 391 71 283 c 0
 71 134 83 5 143 5 c 0
 183 5 201 44 201 79 c 0
 201 191 189 304 189 416 c 1
 183 425 l 1
 183 500 188 576 189 651 c 1
 236 649 276 632 321 632 c 0
 333 632 345 633 358 636 c 1
 369 634 l 1
 369 628 370 621 370 615 c 0
 370 595 368 576 367 556 c 1
 371 548 l 1
 371 366 378 165 382 38 c 0
 383 13 407 0 434 0 c 0
 468 0 505 20 505 62 c 0
 503 178 479 650 470 1062 c 1
 479 1063 485 1069 485 1084 c 0
EndSplineSet
EndChar

StartChar: hungarumlaut
Encoding: 375 733 204
Width: 684
VWidth: 0
Flags: HW
LayerCount: 2
Fore
SplineSet
150 0 m 5
 210 17 500 303 500 402 c 4
 500 424 477 440 452 440 c 4
 414 440 155 79 150 13 c 5
 150 0 l 5
428 13 m 5
 494 49 826 318 854 392 c 5
 847 416 822 440 792 440 c 4
 745 440 408 90 408 40 c 4
 408 26 414 13 428 13 c 5
EndSplineSet
EndChar

StartChar: hyphen
Encoding: 35 45 205
Width: 731
VWidth: 0
Flags: HW
LayerCount: 2
Fore
SplineSet
587 739 m 0
 587 775 552 798 519 798 c 0
 462 798 145 787 145 715 c 0
 145 680 179 656 212 656 c 0
 270 656 587 666 587 739 c 0
EndSplineSet
EndChar

StartChar: i
Encoding: 95 105 206
Width: 499
VWidth: 0
Flags: HW
LayerCount: 2
Fore
SplineSet
296 185 m 2
 296 246 l 2
 296 391 286 536 286 681 c 0
 286 811 297 942 297 1072 c 0
 297 1136 295 1199 289 1262 c 1
 394 1262 l 2
 426 1262 453 1288 453 1313 c 0
 453 1335 431 1356 370 1356 c 0
 300 1356 217 1356 126 1356 c 0
 87 1356 25 1353 25 1309 c 0
 25 1262 55 1254 89 1254 c 0
 105 1254 121 1256 136 1256 c 2
 175 1256 l 1
 182 1184 185 1109 185 1036 c 0
 185 884 174 732 174 580 c 0
 174 435 188 290 188 145 c 0
 188 136 185 127 184 118 c 1
 126 118 l 1
 110 117 90 90 90 64 c 0
 90 40 108 18 163 18 c 0
 171 18 180 19 188 20 c 1
 214 16 261 16 307 16 c 0
 340 16 373 16 397 16 c 0
 432 16 465 43 465 79 c 0
 465 122 422 130 381 130 c 0
 358 130 337 128 322 128 c 2
 295 128 l 1
 295 144 296 166 296 185 c 2
EndSplineSet
EndChar

StartChar: j
Encoding: 96 106 216
Width: 520
VWidth: 0
Flags: HW
LayerCount: 2
Fore
SplineSet
352 164.403308756 m 2
 352 382 l 2
 352 663.658595642 331 963.341404358 331 1245 c 1
 436 1245 l 2
 464 1245 492 1262 492 1293 c 0
 492 1325.11320755 187 1339 127 1339 c 0
 103 1339 60 1322 60 1292 c 0
 60 1249.14285714 175 1245.57142857 217 1242 c 1
 217 1233 l 2
 217 884 240 536 240 187 c 0
 240 117 228.903868788 6.25876595091 181 -46 c 0
 129.903868788 -101.741234049 19 -105.8125 19 -134 c 0
 19 -146.021939873 17.2103915931 -157.933242977 17.2103915931 -167.902283734 c 0
 17.2103915931 -182.878257401 21.2490898198 -193.471031105 41.4607406651 -193.471031105 c 0
 328.990221621 -193.471031105 352 46.0545882972 352 164.403308756 c 2
EndSplineSet
EndChar

StartChar: k
Encoding: 97 107 218
Width: 637
VWidth: 0
Flags: HW
LayerCount: 2
Fore
SplineSet
572 1289 m 1
 572 1329 526 1344 493 1344 c 0
 440 1344 241 912 202 842 c 1
 202 915 l 2
 202 1038 203 1243 229 1288 c 1
 229 1294 l 2
 229 1328 200 1357 166 1357 c 0
 140 1357 116 1342 105 1318 c 1
 105 1097 66 877 66 656 c 2
 66 34 l 2
 66 -7 94 -31 134 -31 c 0
 162 -31 176 -14 176 17 c 2
 176 396 l 2
 176 519 194 641 250 752 c 1
 271 626 405 -35 544 -35 c 0
 574 -35 602 -13 602 19 c 0
 602 71 561 108 536 149 c 0
 474 252 348 678 348 797 c 0
 348 838 352 878 352 919 c 1
 380 976 571 1284 572 1289 c 1
EndSplineSet
EndChar

StartChar: l
Encoding: 98 108 221
Width: 467
VWidth: 0
Flags: HW
LayerCount: 2
Fore
SplineSet
184 545 m 0
 184 553 184 562 184 570 c 0
 184 599 185 630 196 656 c 1
 196 820 190 984 190 1148 c 0
 190 1200 204 1252 204 1304 c 0
 204 1332 180 1355 152 1355 c 0
 82 1355 81 1207 81 1161 c 0
 81 1097 87 1033 93 969 c 1
 93 954 l 2
 93 649 67 344 67 39 c 0
 67 7 91 -28 125 -28 c 0
 149 -28 174 -21 195 -9 c 1
 257 -9 319 -14 378 -33 c 1
 405 -29 440 -11 440 21 c 0
 440 72 384 81 330 81 c 0
 297 81 264 78 245 78 c 0
 185 78 176 154 176 219 c 0
 176 333 184 435 184 545 c 0
EndSplineSet
EndChar

StartChar: less
Encoding: 50 60 226
Width: 524
VWidth: 0
Flags: HW
LayerCount: 2
Fore
SplineSet
37 698 m 1
 95 577 285 -22 437 -22 c 0
 474 -22 489 19 491 49 c 1
 465 49 l 1
 428 115 154 679 154 702 c 0
 154 869 385 1193 412 1411 c 1
 367 1446 l 1
 364 1446 362 1447 360 1447 c 0
 296 1447 39 756 37 698 c 1
EndSplineSet
EndChar

StartChar: logicalnot
Encoding: 129 172 227
Width: 467
VWidth: 0
Flags: HW
LayerCount: 2
Fore
SplineSet
30 711 m 0
 2 711 -21 735 -21 763 c 0
 -21 822 90 835 197 835 c 0
 276 835 352 828 380 828 c 0
 492 828 603 848 715 848 c 0
 747 848 782 824 782 790 c 0
 782 766 775 741 763 720 c 1
 763 658 768 596 787 537 c 1
 783 509 765 475 733 475 c 0
 679 475 670 536 670 592 c 0
 670 618 672 643 672 659 c 0
 672 682 671 705 667 727 c 1
 642 728 616 733 591 733 c 0
 404 733 217 711 30 711 c 0
EndSplineSet
EndChar

StartChar: lslash
Encoding: 277 322 228
Width: 467
VWidth: 0
Flags: HW
LayerCount: 2
Fore
SplineSet
392 771 m 0
 392 793 373 807 355 807 c 0
 331 807 267 800 195 775 c 1
 194 899 190 1024 190 1148 c 0
 190 1200 204 1252 204 1304 c 0
 204 1332 180 1355 152 1355 c 0
 82 1355 81 1207 81 1161 c 0
 81 1097 87 1033 93 969 c 1
 93 954 l 2
 93 881 91 809 89 736 c 1
 14 721 -50 697 -50 657 c 0
 -50 634 -36 618 -23 618 c 0
 -3 618 36 626 86 650 c 1
 78 446 67 45 67 39 c 0
 67 7 91 -28 125 -28 c 0
 149 -28 174 -21 195 -9 c 1
 257 -9 319 -14 378 -33 c 1
 405 -29 440 -11 440 21 c 0
 440 72 384 81 330 81 c 0
 273 81 216 78 183 78 c 0
 181 78 176 154 176 219 c 0
 176 333 184 435 184 545 c 0
 184 553 184 562 184 570 c 0
 184 609 185 650 196 686 c 1
 311 714 392 723 392 771 c 0
EndSplineSet
EndChar

StartChar: m
Encoding: 99 109 229
Width: 1013
VWidth: 0
Flags: HW
LayerCount: 2
Fore
SplineSet
795 806 m 0
 795 643 825 461 825 283 c 0
 825 196 824 108 824 21 c 0
 824 -21 829 -107 888 -107 c 0
 932 -107 957 -58 957 -19 c 0
 957 -6 953 8 948 20 c 1
 948 23 932 176 932 206 c 2
 932 207 l 2
 932 279 937 351 937 423 c 0
 937 693 911 1002 911 1292 c 0
 911 1329 867 1348 836 1348 c 0
 729 1348 563 505 522 370 c 1
 494 520 255 1351 188 1351 c 0
 158 1351 109 1340 109 1301 c 0
 109 1288 114 1272 121 1261 c 1
 121 843 58 427 58 9 c 0
 58 -20 91 -40 116 -40 c 0
 174 -40 184 -10 184 28 c 0
 184 47 181 69 181 89 c 0
 181 415 203 740 220 1065 c 1
 273 904 426 348 426 202 c 0
 426 149 457 114 511 114 c 0
 598 114 763 937 803 1059 c 1
 803 975 795 890 795 806 c 0
EndSplineSet
EndChar

StartChar: macron
Encoding: 132 175 230
Width: 651
VWidth: 0
Flags: HW
LayerCount: 2
Fore
SplineSet
546 749 m 0
 546 795 436 804 338 804 c 0
 273 804 214 800 194 800 c 0
 165 800 104 797 104 756 c 0
 104 709 226 700 332 700 c 0
 399 700 460 704 480 704 c 0
 510 704 546 712 546 749 c 0
EndSplineSet
EndChar

StartChar: minus
Encoding: 65540 8722 231
Width: 684
VWidth: 0
Flags: HW
LayerCount: 2
Fore
SplineSet
57 655 m 0
 57 604 94 590 139 590 c 0
 282 590 427 600 571 600 c 0
 601 600 629 613 629 647 c 0
 629 701 572 708 530 708 c 0
 488 708 446 701 404 701 c 2
 103 701 l 2
 75 701 57 683 57 655 c 0
EndSplineSet
EndChar

StartChar: uni00B5
Encoding: 138 181 232
AltUni2: 0003bc.ffffffff.0
Width: 641
VWidth: 0
Flags: HW
LayerCount: 2
Fore
SplineSet
520 1389 m 0
 471 1389 464 1369 464 1341 c 0
 464 1330 465 1319 465 1307 c 0
 465 1057 453 808 439 559 c 1
 439 480 411 31 319 31 c 0
 204 31 189 152 189 241 c 0
 189 386 160 530 160 675 c 2
 160 1232 l 2
 160 1289 146 1355 76 1355 c 1
 54 1306 l 1
 74 1213 79 1114 79 1013 c 0
 79 824 68 697 68 484 c 2
 68 475 l 2
 68 356 75 215 75 99 c 2
 75 -202 l 2
 75 -230 93 -248 121 -248 c 0
 172 -248 186 -211 186 -166 c 0
 186 -107 184 -48 182 11 c 1
 212 -15 250 -31 298 -31 c 0
 593 -31 519 665 561 865 c 0
 562 869 562 874 562 878 c 0
 562 890 560 901 560 913 c 0
 560 970 569 1027 569 1084 c 0
 569 1151 583 1221 583 1290 c 0
 583 1336 580 1389 520 1389 c 0
EndSplineSet
EndChar

StartChar: multiply
Encoding: 172 215 233
Width: 684
VWidth: 0
Flags: HW
LayerCount: 2
Fore
SplineSet
479 412 m 1
 512 399 l 1
 550 399 585 435 585 473 c 0
 585 539 426 583 426 643 c 0
 426 707 564 745 564 811 c 0
 564 839 538 866 510 866 c 0
 435 866 393 750 337 721 c 1
 305 748 174 880 148 880 c 0
 118 880 88 854 88 823 c 0
 88 755 207 681 253 638 c 1
 227 601 119 528 119 490 c 0
 119 460 151 430 181 430 c 0
 247 430 307 560 333 562 c 1
 348 557 456 434 479 412 c 1
EndSplineSet
EndChar

StartChar: n
Encoding: 100 110 234
Width: 827
VWidth: 0
Flags: HW
LayerCount: 2
Fore
SplineSet
603 189 m 1
 548 324 306 1354 166 1354 c 0
 161 1354 156 1352 151 1349 c 1
 151 1362 l 1
 97 1322 76 1274 76 1211 c 0
 76 1084 64 956 64 829 c 0
 64 595 68 361 68 127 c 0
 68 84 76 2 135 2 c 0
 169 2 197 32 197 66 c 0
 197 83 183 99 176 114 c 1
 176 1145 l 1
 232 1016 536 219 536 102 c 0
 536 98 535 95 535 93 c 0
 554 55 545 -6 604 -6 c 0
 628 -6 653 4 676 11 c 1
 728 92 749 951 750 1109 c 1
 750 1264 l 2
 750 1302 734 1344 692 1344 c 0
 649 1344 641 1315 641 1283 c 0
 641 1264 644 1244 644 1228 c 0
 644 881 636 534 603 189 c 1
EndSplineSet
EndChar

StartChar: nine
Encoding: 47 57 238
Width: 563
VWidth: 0
Flags: HW
LayerCount: 2
Fore
SplineSet
440 237 m 1
 440 631 464 1026 464 1420 c 0
 464 1547 433 1614 292 1614 c 0
 121 1614 94 1370 94 1243 c 0
 94 1087 206 965 355 931 c 1
 356 848 359 772 359 686 c 0
 359 502 357 94 327 4 c 1
 359 -34 l 1
 409 -34 427 9 427 49 c 0
 427 64 426 78 426 90 c 0
 426 139 439 188 440 237 c 1
357 1009 m 1
 254 1067 194 1085 194 1247 c 0
 194 1306 212 1527 293 1527 c 0
 357 1527 366 1480 366 1427 c 0
 366 1288 365 1148 357 1009 c 1
EndSplineSet
EndChar

StartChar: numbersign
Encoding: 25 35 240
Width: 748
VWidth: 0
Flags: HW
LayerCount: 2
Fore
SplineSet
676 637 m 1
 676 687 632 699 591 699 c 0
 584 699 577 698 570 698 c 1
 571 786 576 875 595 962 c 1
 662 959 l 1
 698 959 709 991 716 1020 c 1
 673 1067 l 1
 607 1067 l 1
 611 1223 680 1369 680 1525 c 0
 680 1546 652 1566 632 1566 c 0
 610 1566 592 1552 579 1535 c 1
 554 1377 537 1219 505 1062 c 1
 465 1052 422 1054 381 1054 c 0
 362 1054 344 1054 326 1058 c 1
 328 1213 363 1365 363 1520 c 1
 340 1567 l 1
 325 1567 l 2
 278 1567 272 1530 272 1494 c 0
 272 1481 273 1468 273 1457 c 0
 273 1320 245 1185 228 1049 c 1
 207 1047 186 1046 165 1046 c 0
 144 1046 123 1047 102 1047 c 1
 72 1014 l 1
 72 1004 l 2
 72 955 123 945 169 945 c 0
 188 945 207 947 220 948 c 1
 213 859 204 769 189 681 c 1
 176 681 152 683 127 683 c 0
 81 683 31 676 31 637 c 0
 31 583 72 571 116 571 c 0
 137 571 158 574 176 576 c 1
 137 375 105 170 105 -36 c 0
 105 -65 138 -80 163 -80 c 0
 249 -80 262 488 274 582 c 1
 324 585 l 1
 371 585 419 585 466 581 c 1
 459 374 401 171 401 -37 c 0
 401 -74 443 -81 472 -81 c 1
 507 -39 l 1
 507 171 545 378 563 587 c 1
 593 586 l 2
 628 585 676 592 677 637 c 1
 676 637 l 1
282 686 m 1
 285 776 290 867 314 954 c 1
 342 959 371 960 400 960 c 0
 432 960 465 959 496 952 c 1
 495 864 478 777 463 691 c 1
 412 685 359 685 307 685 c 0
 299 685 290 685 282 686 c 1
EndSplineSet
EndChar

StartChar: o
Encoding: 101 111 241
Width: 651
VWidth: 0
Flags: HW
LayerCount: 2
Fore
SplineSet
584 798 m 2
 584 1114 490 1378 204 1378 c 0
 49 1378 50 860 50 751 c 2
 50 714 l 1
 52 714 53 711 53 704 c 0
 53 677 51 658 51 626 c 0
 51 410 82 -38 315 -38 c 0
 573 -38 588 368 588 551 c 0
 588 628 584 706 584 783 c 2
 584 798 l 2
282 1269 m 0
 384 1269 448 1171 451 1077 c 1
 451 1041 l 1
 452 882 478 723 478 564 c 0
 478 454 464 47 307 47 c 0
 173 47 162 613 162 717 c 0
 162 780 172 843 172 906 c 0
 172 937 170 981 170 1027 c 0
 170 1141 184 1269 282 1269 c 0
EndSplineSet
EndChar

StartChar: oe
Encoding: 291 339 246
Width: 846
VWidth: 0
Flags: HW
LayerCount: 2
Fore
SplineSet
595 1256 m 1
 651 1250 711 1214 767 1214 c 0
 795 1214 807 1242 807 1261 c 0
 807 1323 604 1352 562 1352 c 0
 516 1352 498 1332 498 1178 c 1
 465 1269 388 1348 293 1348 c 0
 62 1348 54 887 54 751 c 2
 54 714 l 1
 56 714 57 711 57 704 c 0
 57 677 55 658 55 626 c 0
 55 410 86 -38 319 -38 c 0
 393 -38 463 16 486 127 c 1
 486 36 l 1
 488 1 522 -27 558 -27 c 2
 731 -27 l 2
 763 -27 806 -16 806 19 c 0
 806 60 774 69 741 69 c 0
 683 69 624 64 590 64 c 0
 589 64 586 133 586 192 c 0
 586 315 595 440 595 563 c 0
 595 615 593 666 589 718 c 1
 719 718 l 2
 747 718 764 744 764 769 c 0
 764 792 727 801 686 801 c 0
 659 801 615 797 592 797 c 1
 589 818 586 840 586 867 c 0
 586 961 595 1145 595 1148 c 2
 595 1256 l 1
286 1269 m 0
 388 1269 452 1171 455 1077 c 1
 455 1041 l 1
 456 882 482 723 482 564 c 0
 482 454 468 47 311 47 c 0
 177 47 166 613 166 717 c 0
 166 765 163 835 163 909 c 0
 163 1078 179 1269 286 1269 c 0
EndSplineSet
EndChar

StartChar: ogonek
Encoding: 373 731 247
Width: 427
VWidth: 0
Flags: HW
LayerCount: 2
Fore
SplineSet
337 -7 m 1
 282 20 l 1
 187 -38 90 -141 90 -259 c 0
 90 -313 122 -366 181 -366 c 0
 213 -366 287 -342 287 -302 c 1
 273 -268 l 1
 248 -286 218 -301 187 -301 c 0
 165 -301 160 -266 160 -250 c 0
 160 -145 266 -66 337 -7 c 1
EndSplineSet
EndChar

StartChar: one
Encoding: 39 49 251
Width: 452
VWidth: 0
Flags: HW
LayerCount: 2
Fore
SplineSet
152 1308 m 0
 152 923 214 519 214 120 c 0
 214 93 193 86 169 86 c 0
 121 86 116 75 116 47 c 0
 116 -3 139 -9 180 -9 c 0
 203 -9 211 -8 241 -8 c 0
 312 -8 474 -4 474 52 c 0
 474 99 423 103 387 103 c 1
 387 102 l 1
 362 102 337 98 312 96 c 1
 312 109 l 2
 312 433 268 756 268 1079 c 0
 268 1205 237 1329 237 1455 c 0
 237 1484 243 1513 249 1541 c 1
 231 1574 177 1575 144 1575 c 0
 101 1575 -21 1574 -21 1521 c 0
 -21 1483 7 1477 37 1477 c 0
 54 1477 71 1479 84 1479 c 0
 144 1479 155 1432 155 1383 c 0
 155 1356 152 1329 152 1308 c 0
EndSplineSet
EndChar

StartChar: oslash
Encoding: 205 248 255
Width: 741
VWidth: 0
Flags: HW
LayerCount: 2
Fore
SplineSet
191.708007812 -226.956054688 m 1
 242 -274 l 1
 286.357421875 -17.140625 l 1
 310.140625 -30.7099609375 336.802734375 -38 367 -38 c 0
 625 -38 640 368 640 551 c 0
 640 628 636 706 636 783 c 2
 636 798 l 2
 636 1007.56152344 594.659179688 1194.25390625 483.395507812 1296.24609375 c 1
 523 1560 l 1
 462 1560 l 1
 425.763671875 1337.75097656 l 1
 378.756835938 1363.69238281 322.58203125 1378 256 1378 c 0
 101 1378 102 860 102 751 c 2
 102 714 l 1
 104 714 105 711 105 704 c 0
 105 677 103 658 103 626 c 0
 103 462.525390625 120.756835938 166.1640625 230.3984375 31.6962890625 c 1
 191.708007812 -226.956054688 l 1
302.08984375 88.8125 m 1
 467.670898438 1191.5234375 l 1
 489.349609375 1157.89355469 501.720703125 1117.08300781 503 1077 c 1
 503 1041 l 1
 504 882 530 723 530 564 c 0
 530 454 516 47 359 47 c 0
 336.833007812 47 318.032226562 62.4892578125 302.08984375 88.8125 c 1
257.803710938 214.90625 m 1
 218.578125 390.544921875 214 649.908203125 214 717 c 0
 214 780 224 843 224 906 c 0
 224 937 222 981 222 1027 c 0
 222 1141 236 1269 334 1269 c 0
 363.405273438 1269 389.65234375 1260.85546875 412.190429688 1247.00976562 c 1
 257.803710938 214.90625 l 1
EndSplineSet
EndChar

StartChar: p
Encoding: 102 112 257
Width: 483
VWidth: 0
Flags: HW
LayerCount: 2
Fore
SplineSet
71 1270 m 1
 85 1213 87 1147 87 1080 c 0
 87 1012 84 944 84 885 c 0
 84 841 83 747 64 709 c 1
 64 702 l 2
 64 685 69 668 76 652 c 1
 76 530 68 409 68 287 c 0
 68 186 71 85 93 -14 c 1
 136 -39 l 1
 170 -39 205 -14 205 21 c 0
 205 151 189 279 189 409 c 2
 189 628 l 1
 421 699 424 831 424 1044 c 0
 424 1180 381 1342 216 1342 c 2
 126 1342 l 2
 93 1342 76 1297 71 1270 c 1
208 1228 m 1
 308 1228 312 1136 312 1059 c 0
 312 969 309 729 190 713 c 1
 190 716 l 1
 189 849 186 982 186 1115 c 2
 186 1231 l 1
 188 1231 208 1231 208 1228 c 1
EndSplineSet
EndChar

StartChar: paragraph
Encoding: 139 182 258
Width: 887
VWidth: 0
Flags: HW
LayerCount: 2
Fore
SplineSet
149 1454 m 1
 149 1591 259 1748 406 1748 c 0
 434 1748 461 1748 488 1740 c 1
 486 1697 l 1
 486 1531 506 1366 506 1200 c 1
 502 1199 495 1196 491 1196 c 0
 296 1196 148 1224 148 1455 c 1
 149 1454 l 1
780 1739 m 1
 788 1739 795 1738 803 1738 c 0
 832 1738 860 1759 860 1790 c 0
 860 1838 772 1852 737 1854 c 1
 728 1865 l 1
 672 1858 l 1
 673 1859 l 1
 647 1864 620 1876 593 1876 c 0
 570 1876 548 1871 531 1854 c 1
 201 1823 36 1747 36 1384 c 1
 45 1364 44 1342 49 1321 c 0
 95 1118 333 1098 504 1098 c 1
 505 1053 508 1009 508 964 c 0
 508 661 465 359 465 56 c 0
 465 21 491 -8 527 -8 c 0
 576 -8 586 21 586 64 c 0
 586 370 624 674 624 980 c 0
 624 1217 597 1452 597 1689 c 0
 597 1700 599 1769 606 1769 c 0
 658 1769 668 1731 668 1689 c 0
 668 1666 665 1642 665 1623 c 0
 665 1474 680 1326 680 1177 c 0
 680 819 661 461 661 103 c 0
 661 52 669 -20 736 -20 c 0
 767 -20 794 4 794 36 c 0
 794 113 782 188 782 265 c 0
 782 557 794 850 794 1142 c 0
 794 1341 781 1540 780 1739 c 1
EndSplineSet
EndChar

StartChar: parenleft
Encoding: 30 40 259
Width: 418
VWidth: 0
Flags: HW
LayerCount: 2
Fore
SplineSet
396 -319 m 1
 379 -251 337 -193 308 -130 c 0
 185 139 154 583 154 879 c 0
 154 1048 181 1259 245 1416 c 0
 273 1484 317 1545 318 1621 c 1
 282 1651 l 1
 273 1651 l 2
 131 1651 52 1001 52 881 c 0
 52 701 146 -361 338 -361 c 0
 364 -361 385 -340 394 -318 c 1
 396 -319 l 1
EndSplineSet
EndChar

StartChar: parenright
Encoding: 31 41 260
Width: 434
VWidth: 0
Flags: HW
LayerCount: 2
Fore
SplineSet
388 817 m 1
 386 954 323 1650 157 1650 c 1
 120 1621 l 1
 120 1610 l 2
 120 1538 168 1480 194 1416 c 0
 261 1253 285 993 285 816 c 0
 285 564 214 158 111 -71 c 0
 92 -112 25 -217 25 -255 c 0
 25 -284 52 -303 79 -303 c 0
 249 -303 387 651 388 815 c 1
 388 817 l 1
EndSplineSet
EndChar

StartChar: percent
Encoding: 27 37 261
Width: 1077
VWidth: 0
Flags: HW
LayerCount: 2
Fore
SplineSet
940 467 m 2
 940 386 l 2
 940 303 935 116 816 116 c 0
 776 116 741 329 741 366 c 0
 741 428 748 733 832 733 c 0
 928 733 940 535 940 467 c 2
222 1449 m 0
 350 1449 350 1179 350 1092 c 0
 350 1017 346 800 238 800 c 0
 152 800 145 1102 145 1165 c 0
 145 1210 184 1449 222 1449 c 0
657 1438 m 1
 584 1167 328 272 328 52 c 0
 328 27 346 4 367 -8 c 1
 454 -4 482 241 497 308 c 0
 552 558 769 1294 769 1487 c 0
 769 1517 743 1536 715 1536 c 0
 674 1536 659 1467 658 1437 c 1
 657 1438 l 1
811 2 m 0
 1003 2 1040 229 1040 378 c 2
 1040 478 l 2
 1040 612 1017 838 838 838 c 0
 644 838 643 504 643 370 c 0
 643 270 675 2 811 2 c 0
444 1140 m 1
 444 1147 l 2
 444 1300 420 1553 215 1553 c 0
 79 1553 46 1255 46 1163 c 0
 46 1025 47 700 241 700 c 0
 506 700 391 999 443 1141 c 1
 444 1140 l 1
EndSplineSet
EndChar

StartChar: period
Encoding: 36 46 262
Width: 445
VWidth: 0
Flags: HW
LayerCount: 2
Fore
SplineSet
148 41 m 0
 148 4 179 -32 217 -32 c 0
 262 -32 298 -4 298 43 c 0
 298 81 264 120 225 120 c 0
 184 120 148 82 148 41 c 0
EndSplineSet
EndChar

StartChar: periodcentered
Encoding: 140 183 263
Width: 295
VWidth: 0
Flags: HW
LayerCount: 2
Fore
SplineSet
74 706 m 0
 74 669 105 633 143 633 c 0
 188 633 224 661 224 708 c 0
 224 746 190 785 151 785 c 0
 110 785 74 747 74 706 c 0
EndSplineSet
EndChar

StartChar: plus
Encoding: 33 43 264
Width: 853
VWidth: 0
Flags: HW
LayerCount: 2
Fore
SplineSet
354 385 m 0
 354 352 391 333 420 333 c 0
 452 333 487 353 487 389 c 0
 487 444 468 498 468 553 c 0
 468 593 499 602 533 602 c 0
 574 602 613 591 654 591 c 0
 686 591 712 615 712 647 c 0
 712 697 661 709 606 709 c 0
 560 709 512 701 487 701 c 0
 460 701 461 853 460 884 c 0
 460 892 460 901 460 909 c 0
 460 942 440 968 408 968 c 0
 349 968 342 900 342 855 c 0
 342 805 352 755 354 705 c 1
 338 702 323 701 307 701 c 0
 267 701 226 708 186 708 c 0
 157 708 140 682 140 655 c 0
 140 602 180 590 227 590 c 0
 267 590 313 599 341 599 c 1
 341 584 l 2
 341 518 354 451 354 385 c 0
EndSplineSet
EndChar

StartChar: plusminus
Encoding: 134 177 265
Width: 773
VWidth: 0
Flags: HW
LayerCount: 2
Fore
SplineSet
100 200 m 0
 100 149 137 135 182 135 c 0
 325 135 470 145 614 145 c 0
 644 145 672 158 672 192 c 0
 672 246 616 253 574 253 c 0
 532 253 490 246 448 246 c 2
 146 246 l 2
 118 246 100 228 100 200 c 0
314 385 m 0
 314 352 351 333 380 333 c 0
 412 333 448 353 448 389 c 0
 448 444 428 498 428 553 c 0
 428 593 460 602 494 602 c 0
 535 602 573 591 614 591 c 0
 646 591 672 615 672 647 c 0
 672 697 621 709 566 709 c 0
 520 709 473 701 448 701 c 0
 421 701 421 853 420 884 c 1
 428 904 l 1
 428 909 l 2
 428 942 400 968 368 968 c 0
 309 968 302 900 302 855 c 0
 302 805 312 755 314 705 c 1
 298 702 284 701 268 701 c 0
 228 701 186 708 146 708 c 0
 117 708 100 682 100 655 c 0
 100 602 141 590 188 590 c 0
 228 590 274 599 302 599 c 1
 320 584 l 1
 320 518 314 451 314 385 c 0
EndSplineSet
EndChar

StartChar: q
Encoding: 103 113 266
Width: 644
VWidth: 0
Flags: HW
LayerCount: 2
Fore
SplineSet
502 -434 m 1
 530 -434 550 -412 550 -384 c 0
 550 -333 496 -326 455 -326 c 1
 435 -235 399 -143 399 -49 c 1
 579 30 582 635 582 812 c 0
 582 990 570 1262 376 1341 c 0
 346 1353 313 1356 283 1369 c 1
 67 1369 52 903 52 754 c 0
 52 426 6 1 299 -62 c 1
 320 -169 344 -276 344 -385 c 1
 382 -427 449 -432 502 -432 c 1
 502 -434 l 1
271 1288 m 0
 459 1288 473 1004 473 869 c 2
 473 511 l 2
 473 439 408 18 353 18 c 0
 333 18 312 14 293 6 c 1
 151 7 151 590 151 699 c 0
 151 785 172 1288 271 1288 c 0
EndSplineSet
EndChar

StartChar: question
Encoding: 53 63 267
Width: 464
VWidth: 0
Flags: HW
LayerCount: 2
Fore
SplineSet
131 68 m 0
 131 31 163 -8 203 -8 c 0
 251 -8 286 15 286 70 c 0
 286 102 248 148 211 148 c 0
 171 148 131 107 131 68 c 0
63 1359 m 0
 63 1308 59 1203 121 1203 c 0
 145 1203 182 1241 182 1245 c 0
 174 1299 168 1341 168 1356 c 0
 168 1397 174 1447 207 1447 c 0
 266 1447 268 1297 268 1258 c 0
 268 949 153 632 153 269 c 1
 163 232 182 223 203 223 c 0
 222 223 193 229 254 229 c 1
 253 267 253 332 253 366 c 0
 253 823 378 945 378 1260 c 0
 378 1388 363 1547 203 1547 c 0
 93 1547 63 1446 63 1359 c 0
EndSplineSet
EndChar

StartChar: quotedbl
Encoding: 24 34 269
Width: 359
VWidth: 0
Flags: HW
LayerCount: 2
Fore
SplineSet
175 1193 m 2
 182 1193 l 2
 215 1193 238 1433 241 1531 c 1
 236 1556 226 1578 207 1578 c 0
 179 1578 146 1559 146 1531 c 0
 146 1435 162 1193 175 1193 c 2
-31 1193 m 2
 -24 1193 l 2
 16 1193 51 1407 51 1511 c 0
 51 1514 50 1521 50 1525 c 0
 46 1556 31 1578 1 1578 c 0
 -17 1578 -40 1559 -40 1531 c 0
 -40 1435 -35 1193 -31 1193 c 2
EndSplineSet
EndChar

StartChar: quotedblbase
Encoding: 389 8222 270
Width: 660
VWidth: 0
Flags: HW
LayerCount: 2
Fore
SplineSet
565 126 m 4
 445 126 372 -226 372 -329 c 4
 372 -354 379 -370 394 -370 c 4
 451 -370 586 -100 586 81 c 4
 586 110 578 126 565 126 c 4
121 -371 m 1
 200 -371 309 -107 309 71 c 0
 309 95 300 116 272 116 c 0
 175 116 103 -285 103 -333 c 0
 103 -354 108 -368 121 -371 c 1
EndSplineSet
EndChar

StartChar: quotedblleft
Encoding: 387 8220 271
Width: 559
VWidth: 0
Flags: HW
LayerCount: 2
Fore
SplineSet
90 1081 m 0
 210 1081 283 1433 283 1536 c 0
 283 1561 276 1577 261 1577 c 0
 204 1577 69 1307 69 1126 c 0
 69 1097 77 1081 90 1081 c 0
514 1578 m 5
 435 1578 325 1314 325 1136 c 4
 325 1112 335 1091 363 1091 c 4
 460 1091 532 1493 532 1541 c 4
 532 1562 527 1575 514 1578 c 5
EndSplineSet
EndChar

StartChar: quotedblright
Encoding: 388 8221 272
Width: 560
VWidth: 0
Flags: HW
LayerCount: 2
Fore
SplineSet
521 1578 m 0
 376 1578 388 1377 328 1123 c 1
 328 1098 335 1082 350 1082 c 0
 407 1082 542 1352 542 1533 c 0
 542 1562 534 1578 521 1578 c 0
87 1081 m 1
 166 1081 275 1345 275 1523 c 0
 275 1547 266 1568 238 1568 c 0
 141 1568 69 1167 69 1119 c 0
 69 1098 74 1084 87 1081 c 1
EndSplineSet
EndChar

StartChar: quoteleft
Encoding: 384 8216 273
Width: 354
VWidth: 0
Flags: HW
LayerCount: 2
Fore
SplineSet
91 1081 m 0
 211 1081 284 1433 284 1536 c 0
 284 1561 277 1577 262 1577 c 0
 205 1577 70 1307 70 1126 c 0
 70 1097 78 1081 91 1081 c 0
EndSplineSet
EndChar

StartChar: quoteright
Encoding: 385 8217 274
Width: 349
VWidth: 0
Flags: HW
LayerCount: 2
Fore
SplineSet
90 1081 m 1
 169 1081 278 1345 278 1523 c 0
 278 1547 269 1568 241 1568 c 0
 144 1568 72 1167 72 1119 c 0
 72 1098 77 1084 90 1081 c 1
EndSplineSet
EndChar

StartChar: quotesinglbase
Encoding: 386 8218 275
Width: 349
VWidth: 0
Flags: HW
LayerCount: 2
Fore
SplineSet
90 -333 m 1
 169 -333 278 -69 278 109 c 0
 278 133 269 154 241 154 c 0
 144 154 72 -247 72 -295 c 0
 72 -316 77 -330 90 -333 c 1
EndSplineSet
EndChar

StartChar: quotesingle
Encoding: 29 39 276
Width: 359
VWidth: 0
Flags: HW
LayerCount: 2
Fore
SplineSet
175 1193 m 2
 182 1193 l 2
 222 1193 257 1407 257 1511 c 0
 257 1514 256 1521 256 1525 c 1
 261 1531 l 1
 252 1556 237 1578 207 1578 c 0
 179 1578 146 1559 146 1531 c 0
 146 1435 162 1193 175 1193 c 2
EndSplineSet
EndChar

StartChar: r
Encoding: 104 114 277
Width: 504
VWidth: 0
Flags: HW
LayerCount: 2
Fore
SplineSet
282 1098 m 0
 282 1023 247 824 175 787 c 1
 174 945 167 1102 167 1260 c 0
 167 1269 172 1280 174 1289 c 1
 276 1287 282 1175 282 1098 c 0
426 -35 m 0
 455 -35 472 -10 472 17 c 0
 472 47 450 80 438 107 c 0
 351 296 325 533 279 736 c 1
 321 817 384 912 384 1005 c 2
 384 1149 l 2
 384 1295 265 1365 131 1365 c 0
 74 1365 63 1314 63 1268 c 0
 63 898 98 518 98 149 c 0
 98 103 97 58 96 12 c 1
 123 -18 l 1
 180 -18 l 1
 203 37 l 1
 170 169 164 319 164 464 c 0
 164 540 166 615 166 686 c 1
 191 686 l 1
 240 573 302 -35 426 -35 c 0
EndSplineSet
EndChar

StartChar: registered
Encoding: 131 174 280
Width: 1216
VWidth: 0
Flags: HW
LayerCount: 2
Fore
SplineSet
636 -190 m 0
 1113 -190 1114 470 1114 807 c 0
 1114 968 1066 1679 942 1755 c 1
 871 1851 757 1938 632 1938 c 0
 136 1938 102 1292 102 917 c 0
 102 855 102 800 102 757 c 0
 102 358 135 -190 636 -190 c 0
874 1655 m 0
 991 1416 1001 1136 1001 866 c 0
 1001 812 1000 759 1000 706 c 0
 1000 396 981 -79 564 -84 c 1
 545 -76 l 1
 485 -64 l 1
 444 -31 398 -13 362 27 c 0
 224 179 222 747 222 954 c 0
 222 1241 245 1832 647 1832 c 0
 716 1832 844 1716 874 1655 c 0
895 199 m 0
 895 239 865 271 865 314 c 1
 858 314 l 1
 824 425 679 888 676 969 c 1
 687 1007 817 1023 817 1270 c 0
 817 1433 788 1635 581 1635 c 0
 447 1635 365 1603 365 1454 c 0
 365 1327 390 1202 390 1075 c 2
 390 676 l 2
 390 606 409 539 416 470 c 0
 423 399 425 327 425 256 c 0
 425 240 424 224 424 208 c 0
 424 169 461 143 497 143 c 0
 537 143 553 174 553 210 c 0
 553 406 508 600 508 796 c 0
 508 828 511 859 513 891 c 1
 568 914 l 1
 614 797 716 143 838 143 c 0
 861 143 895 175 895 199 c 0
587 1525 m 0
 693 1525 695 1359 695 1280 c 0
 695 1277 695 1275 695 1272 c 0
 695 1142 631 1049 510 1000 c 1
 488 1086 487 1175 487 1263 c 0
 487 1312 479 1364 479 1407 c 0
 479 1475 497 1525 587 1525 c 0
EndSplineSet
EndChar

StartChar: ring
Encoding: 372 730 281
Width: 685
VWidth: 0
Flags: HW
LayerCount: 2
Fore
SplineSet
79.5 395 m 0
 79.5 281 121.5 102 312.5 102 c 0
 557.5 102 605.5 313 605.5 397 c 0
 605.5 485 548.5 634 311.5 634 c 0
 170.5 634 79.5 531 79.5 395 c 0
321.5 565 m 0
 495.5 565 537.5 456 537.5 393 c 0
 537.5 332 502.5 179 320.5 179 c 0
 230.5 179 156.5 271 156.5 329 c 0
 156.5 437 191.5 565 321.5 565 c 0
EndSplineSet
EndChar

StartChar: s
Encoding: 105 115 282
Width: 445
VWidth: 0
Flags: HW
LayerCount: 2
Fore
SplineSet
150 1075 m 0
 150 1127 175 1271 243 1273 c 1
 255 1266 272 1261 286 1261 c 0
 309 1261 336 1273 336 1300 c 0
 336 1349 279 1381 235 1381 c 0
 99 1381 50 1194 50 1086 c 0
 50 790 295 631 295 367 c 0
 295 286 268 71 157 71 c 0
 128 71 100 82 72 86 c 1
 49 51 l 1
 55 3 97 -22 141 -28 c 1
 141 -23 l 1
 325 -19 395 191 395 342 c 0
 395 689 150 811 150 1075 c 0
EndSplineSet
EndChar

StartChar: section
Encoding: 124 167 287
Width: 520
VWidth: 0
Flags: HW
LayerCount: 2
Fore
SplineSet
340 649 m 0
 340 612 319 573 291 549 c 1
 237 622 180 701 180 795 c 0
 180 840 196 890 224 925 c 1
 278 840 340 754 340 649 c 0
440 634 m 0
 440 943 195 1046 195 1277 c 0
 195 1405 381 1308 381 1392 c 0
 381 1430 307 1443 280 1443 c 0
 168 1443 113 1385 113 1275 c 0
 113 1186 132 1099 171 1018 c 1
 110 972 80 895 80 820 c 0
 80 550 325 457 325 257 c 0
 325 206 294 110 232 109 c 1
 220 116 203 121 189 121 c 0
 166 121 139 109 139 82 c 0
 139 33 196 1 240 1 c 0
 363 1 425 139 425 246 c 0
 425 326 393 399 351 465 c 1
 408 502 440 566 440 634 c 0
EndSplineSet
EndChar

StartChar: semicolon
Encoding: 49 59 288
Width: 438
VWidth: 0
Flags: HW
LayerCount: 2
Fore
SplineSet
244 359 m 0
 166 359 192 138 128 44 c 0
 109 28 103 11 103 -1 c 0
 103 -18 117 -28 133 -28 c 0
 223 -28 315 159 315 251 c 0
 315 315 294 359 244 359 c 0
179 1025 m 0
 179 988 209 952 247 952 c 0
 292 952 328 980 328 1027 c 0
 328 1065 294 1104 255 1104 c 0
 214 1104 179 1065 179 1025 c 0
EndSplineSet
EndChar

StartChar: seven
Encoding: 45 55 289
Width: 467
VWidth: 0
Flags: HW
LayerCount: 2
Fore
SplineSet
193 119 m 1
 308 448 328 1169 400 1523 c 1
 386 1578 342 1582 296 1582 c 2
 258 1582 l 2
 210 1582 70 1580 70 1549 c 0
 70 1522 96 1499 118 1489 c 1
 161 1493 205 1498 248 1498 c 0
 264 1498 280 1496 296 1494 c 1
 287 1070 219 587 112 182 c 0
 98 129 75 80 75 24 c 1
 114 -11 l 1
 164 -11 194 55 194 101 c 0
 194 108 194 114 193 119 c 1
EndSplineSet
EndChar

StartChar: six
Encoding: 44 54 290
Width: 562
VWidth: 0
Flags: HW
LayerCount: 2
Fore
SplineSet
95 880 m 0
 95 635 67 -14 309 -14 c 0
 464 -14 474 114 474 236 c 0
 474 396 464 952 228 952 c 0
 218 952 207 951 196 949 c 1
 200 1044 228 1419 285 1475 c 1
 318 1482 363 1505 363 1545 c 0
 363 1567 335 1586 315 1586 c 0
 94 1586 95 1030 95 880 c 0
325 73 m 0
 200 73 195 635 195 770 c 0
 195 814 198 853 240 882 c 1
 358 860 378 320 378 212 c 0
 378 177 377 73 325 73 c 0
EndSplineSet
EndChar

StartChar: slash
Encoding: 37 47 291
Width: 512
VWidth: 0
Flags: HW
LayerCount: 2
Fore
SplineSet
423 1553 m 0
 347 1303 74 153 37 30 c 0
 33 15 31 2 31 -9 c 0
 31 -38 43 -54 55 -54 c 0
 63 -54 72 -46 75 -31 c 1
 173 181 443 1324 478 1503 c 0
 479 1509 480 1515 480 1520 c 0
 480 1552 459 1567 443 1567 c 0
 434 1567 426 1562 423 1553 c 0
EndSplineSet
EndChar

StartChar: sterling
Encoding: 120 163 293
Width: 712
VWidth: 0
Flags: HW
LayerCount: 2
Fore
SplineSet
652 146 m 0
 615 146 581 125 542 125 c 0
 452 125 367 162 277 169 c 1
 298 238 324 305 324 378 c 0
 324 554 248 728 217 900 c 1
 360 910 453 909 453 928 c 0
 453 957 427 979 401 979 c 0
 332 979 265 976 196 976 c 1
 178 1062 177 1154 177 1243 c 2
 177 1270 l 2
 177 1340 202 1535 269 1535 c 0
 363 1535 314 1359 423 1359 c 0
 452 1359 455 1380 455 1403 c 0
 455 1474 368 1632 288 1632 c 2
 263 1632 l 2
 97 1632 78 1329 78 1238 c 0
 78 1147 100 1057 103 966 c 1
 29 966 26 943 26 924 c 0
 26 922 26 920 26 918 c 0
 26 906 40 894 120 894 c 1
 161 725 227 559 227 382 c 0
 227 325 212 194 165 158 c 0
 123 125 36 123 36 53 c 0
 36 23 69 8 94 6 c 1
 94 2 l 1
 129 21 241 70 278 71 c 1
 278 68 l 1
 382 57 450 27 559 27 c 0
 658 27 707 59 707 96 c 0
 707 123 683 146 652 146 c 0
EndSplineSet
EndChar

StartChar: t
Encoding: 106 116 294
Width: 493
VWidth: 0
Flags: HW
LayerCount: 2
Fore
SplineSet
253 190 m 0
 253 138 257 85 257 33 c 1
 295 6 l 1
 328 6 365 34 365 67 c 0
 365 456 297 841 297 1230 c 0
 297 1237 300 1245 301 1251 c 1
 332 1247 363 1237 395 1237 c 0
 427 1237 463 1257 463 1293 c 0
 463 1336 431 1342 399 1342 c 0
 387 1342 376 1341 366 1341 c 0
 273 1341 181 1360 88 1360 c 0
 65 1360 23 1344 23 1316 c 0
 23 1255 155 1256 197 1255 c 1
 199 1154 244 299 256 260 c 1
 255 237 253 213 253 190 c 0
EndSplineSet
EndChar

StartChar: thorn
Encoding: 211 254 298
Width: 495
VWidth: 0
Flags: HW
LayerCount: 2
Fore
SplineSet
337 828 m 0
 337 710 276 635 182 571 c 1
 182 757 178 943 178 1129 c 1
 184 1129 l 1
 313 1027 337 998 337 828 c 0
64 1178 m 1
 64 805 86 432 86 58 c 0
 86 28 99 -11 135 -11 c 0
 186 -11 203 29 203 74 c 0
 203 207 188 339 187 472 c 1
 345 540 443 670 443 845 c 0
 443 1008 362 1207 181 1233 c 1
 181 1258 188 1318 188 1380 c 0
 188 1463 175 1548 113 1548 c 0
 74 1548 62 1522 62 1487 c 2
 64 1178 l 1
EndSplineSet
EndChar

StartChar: three
Encoding: 41 51 299
Width: 476
VWidth: 0
Flags: HW
LayerCount: 2
Fore
SplineSet
392 1124 m 0
 392 1292 358 1573 187 1573 c 0
 90 1573 21 1501 -13 1416 c 1
 -8 1387 16 1360 48 1360 c 0
 131 1360 107 1477 183 1477 c 0
 276 1477 290 1216 290 1150 c 0
 290 1016 160 950 159 889 c 0
 159 859 192 847 222 847 c 0
 230 847 237 847 243 849 c 1
 366 694 368 482 368 294 c 0
 368 207 358 64 243 64 c 0
 174 64 184 110 142 110 c 0
 110 110 108 101 108 76 c 0
 108 5 202 -20 259 -20 c 0
 458 -20 471 213 471 361 c 0
 471 509 438 844 300 927 c 1
 343 993 392 1040 392 1124 c 0
EndSplineSet
EndChar

StartChar: tilde
Encoding: 374 732 302
Width: 675
VWidth: 0
Flags: HW
LayerCount: 2
Fore
SplineSet
509 1223 m 0
 449 1223 479 1141 420 1141 c 0
 378 1141 296 1224 247 1224 c 0
 152 1224 99 1167 99 1105 c 0
 99 1063 136 1046 173 1046 c 1
 227 1065 178 1107 226 1125 c 1
 307 1125 285 1038 444 1038 c 0
 515 1038 576 1099 576 1170 c 0
 576 1194 556 1223 509 1223 c 0
EndSplineSet
EndChar

StartChar: trademark
Encoding: 400 8482 303
Width: 1037
VWidth: 0
Flags: HW
LayerCount: 2
Fore
SplineSet
228 787 m 0
 228 777 228 767 228 757 c 0
 228 723 227 688 217 657 c 1
 271 629 l 1
 301 637 340 654 340 691 c 0
 340 698 334 712 332 719 c 1
 336 773 337 827 337 881 c 0
 337 1044 324 1206 324 1369 c 0
 324 1408 325 1448 329 1487 c 1
 387 1485 l 1
 423 1485 473 1486 483 1529 c 1
 471 1417 468 1303 468 1189 c 0
 468 1095 470 1002 470 910 c 0
 470 836 457 764 457 690 c 0
 457 658 466 621 505 621 c 0
 580 621 582 742 582 793 c 0
 582 861 570 928 570 996 c 0
 570 1082 570 1168 574 1254 c 1
 595 1174 620 845 708 845 c 0
 770 845 792 981 796 1027 c 1
 801 1036 l 1
 801 1077 820 1102 832 1139 c 1
 834 1062 840 985 840 908 c 0
 840 829 828 752 828 673 c 0
 828 642 853 625 882 625 c 0
 957 625 959 728 959 785 c 0
 959 788 959 790 959 793 c 2
 958 786 l 1
 958 908 944 1031 944 1153 c 0
 944 1298 966 1442 966 1587 c 0
 966 1617 939 1639 910 1639 c 0
 846 1639 841 1576 830 1528 c 0
 800 1393 764 1259 717 1129 c 1
 704 1229 618 1433 618 1542 c 0
 618 1554 619 1565 622 1575 c 1
 606 1594 588 1616 561 1616 c 0
 534 1616 489 1574 486 1547 c 1
 486 1552 l 1
 447 1591 l 1
 425 1591 404 1595 382 1595 c 0
 277 1595 172 1583 67 1574 c 1
 44 1533 l 1
 44 1520 l 2
 44 1484 84 1475 126 1475 c 0
 163 1475 202 1482 220 1484 c 1
 223 1456 224 1428 224 1400 c 0
 224 1332 218 1266 218 1198 c 0
 218 1061 228 924 228 787 c 0
EndSplineSet
EndChar

StartChar: two
Encoding: 40 50 304
Width: 537
VWidth: 0
Flags: HW
LayerCount: 2
Fore
SplineSet
167 86 m 1
 274 409 480 772 480 1201 c 0
 480 1357 479 1587 260 1587 c 1
 260 1586 l 1
 168 1586 128 1465 128 1390 c 0
 128 1357 140 1327 178 1327 c 0
 254 1327 228 1470 284 1500 c 1
 378 1492 382 1305 382 1236 c 0
 382 886 293 614 151 299 c 0
 114 218 96 125 38 55 c 1
 38 47 l 2
 38 7 77 -15 113 -15 c 0
 217 -15 321 4 425 4 c 1
 444 20 452 35 452 49 c 0
 452 70 434 89 409 107 c 1
 331 107 244 99 167 86 c 1
EndSplineSet
EndChar

StartChar: u
Encoding: 107 117 306
Width: 641
VWidth: 0
Flags: HW
LayerCount: 2
Fore
SplineSet
298 -31 m 0
 563 -31 562 676 562 878 c 0
 562 890 560 901 560 913 c 0
 560 970 569 1027 569 1084 c 0
 569 1151 583 1221 583 1290 c 0
 583 1336 580 1389 520 1389 c 0
 471 1389 464 1369 464 1341 c 0
 464 1330 465 1319 465 1307 c 0
 465 1281 465 1242 465 1192 c 0
 465 862 456 91 319 91 c 0
 204 91 189 177 189 241 c 0
 189 386 160 530 160 675 c 2
 160 1232 l 2
 160 1287 131 1349 98 1349 c 0
 83 1349 68 1337 54 1306 c 1
 57 1203 63 1114 63 1013 c 0
 63 821 63 693 68 473 c 1
 68 257 93 -31 298 -31 c 0
EndSplineSet
EndChar

StartChar: underscore
Encoding: 85 95 314
Width: 844
VWidth: 0
Flags: HW
LayerCount: 2
Fore
SplineSet
800 2 m 0
 768 2 735 0 703 0 c 0
 483 0 264 0 44 0 c 0
 16 0 -6 -22 -6 -50 c 0
 -6 -71 29 -94 73 -94 c 0
 284 -94 494 -84 705 -84 c 0
 733 -82 764 -82 794 -82 c 0
 828 -82 850 -57 850 -36 c 0
 850 -16 835 2 800 2 c 0
EndSplineSet
EndChar

StartChar: uni00AD
Encoding: 130 173 315
Width: 646
VWidth: 0
Flags: HW
LayerCount: 2
Fore
SplineSet
544 739 m 0
 544 775 509 798 476 798 c 0
 419 798 102 787 102 715 c 0
 102 680 136 656 169 656 c 0
 227 656 544 666 544 739 c 0
EndSplineSet
EndChar

StartChar: Dcroat
Encoding: 229 272 316
Width: 653
VWidth: 0
Flags: HW
LayerCount: 2
Fore
SplineSet
371 791 m 0
 371 831 286 847 199 847 c 0
 195 847 192 847 188 847 c 1
 175 1040 163 1233 162 1427 c 2
 162 1429 l 1
 444 1429 488 1061 488 854 c 0
 488 615 428 254 211 114 c 1
 211 310 l 2
 211 454 204 598 195 742 c 1
 246 743 289 746 305 746 c 0
 335 746 371 754 371 791 c 0
168 -5 m 0
 419 -5 593 503 593 711 c 0
 593 733 582 754 593 773 c 1
 593 868 l 2
 593 1023 587 1552 224 1552 c 0
 218 1552 201 1552 193 1552 c 0
 135 1552 36 1548 36 1481 c 0
 36 1400 81 1308 81 1206 c 0
 81 1131 75 1055 75 982 c 0
 75 936 76 889 79 843 c 1
 51 842 29 842 19 842 c 0
 -10 842 -71 839 -71 798 c 0
 -71 761 3 748 86 744 c 1
 97 599 113 453 113 306 c 0
 113 244 113 112 68 65 c 1
 68 14 126 -5 168 -5 c 0
EndSplineSet
EndChar

StartChar: dcroat
Encoding: 230 273 317
Width: 610
VWidth: 0
Flags: HW
LayerCount: 2
Fore
SplineSet
79 901 m 0
 79 835 103 751 31 751 c 0
 2 751 -59 748 -59 707 c 0
 -59 685 3 676 77 673 c 1
 75 534 73 257 73 256 c 0
 73 190 75 -12 125 -12 c 2
 273 -12 l 1
 526 119 542 340 542 592 c 0
 542 629 542 667 542 705 c 0
 542 741 546 778 546 808 c 0
 546 1054 377 1353 127 1353 c 0
 93 1353 55 1322 55 1286 c 0
 55 1184 79 1027 79 901 c 0
193 755 m 1
 189 852 185 948 185 1045 c 0
 185 1116 187 1188 200 1258 c 1
 432 1231 438 784 438 612 c 0
 438 480 420 92 216 92 c 1
 216 141 l 2
 216 318 205 495 196 672 c 1
 229 673 257 676 267 676 c 0
 297 676 333 680 333 701 c 0
 333 743 262 754 193 755 c 1
EndSplineSet
EndChar

StartChar: uni030F
Encoding: 377 783 320
Width: 997
VWidth: 0
Flags: HW
LayerCount: 2
Fore
SplineSet
532 8 m 1
 546 8 552 19 552 32 c 0
 552 76 294 390 258 390 c 0
 229 390 205 364 198 338 c 1
 217 304 l 1
 239 279 469 67 532 8 c 1
516 331 m 0
 516 254 730 37 777 -8 c 1
 790 13 l 1
 786 66 596 360 568 360 c 0
 545 360 516 347 516 331 c 0
EndSplineSet
EndChar

StartChar: uni0311
Encoding: 378 785 321
Width: 575
VWidth: 0
Flags: HW
LayerCount: 2
Fore
SplineSet
453 961 m 1
 455 967 455 973 458 978 c 1
 421 1064 395 1142 286 1142 c 0
 152 1142 113 1010 113 899 c 1
 151 867 l 1
 222 867 204 1008 260 1047 c 1
 303 1047 l 2
 330 1047 350 975 350 953 c 0
 350 910 357 876 408 876 c 0
 436 876 462 899 462 928 c 0
 462 934 455 954 453 961 c 1
EndSplineSet
EndChar

StartChar: uni0326
Encoding: 379 806 322
Width: 462
VWidth: 0
Flags: HW
LayerCount: 2
Fore
SplineSet
151 -550 m 0
 185 -550 358 -317 358 -215 c 0
 358 -183 316 -185 302 -174 c 1
 183 -174 117 -527 117 -527 c 1
 117 -544 127 -550 151 -550 c 0
EndSplineSet
EndChar

StartChar: v
Encoding: 108 118 325
Width: 666
VWidth: 0
Flags: HW
LayerCount: 2
Fore
SplineSet
343 247 m 1
 320 404 215 1366 78 1366 c 0
 53 1366 28 1345 28 1319 c 0
 28 1274 71 1161 84 1110 c 0
 176 754 266 377 266 7 c 1
 304 -24 l 1
 480 -24 488 658 515 821 c 0
 544 998 624 1170 624 1351 c 0
 624 1377 600 1396 577 1396 c 2
 531 1396 l 1
 468 1019 420 630 343 247 c 1
EndSplineSet
EndChar

StartChar: w
Encoding: 109 119 326
Width: 802
VWidth: 0
Flags: HW
LayerCount: 2
Fore
SplineSet
653 139 m 0
 653 371 716 644 716 896 c 2
 716 1046 l 2
 716 1109 724 1173 744 1234 c 1
 744 1245 l 1
 751 1272 749 1301 749 1329 c 0
 749 1360 726 1377 697 1377 c 0
 652 1377 634 1357 634 1327 c 0
 634 1316 636 1305 641 1292 c 1
 641 1189 610 1087 610 984 c 0
 610 758 602 531 572 307 c 1
 531 586 531 871 450 1143 c 1
 450 1160 l 2
 450 1194 419 1210 389 1210 c 1
 334 1186 l 1
 334 884 290 573 247 283 c 1
 236 589 156 888 156 1195 c 0
 156 1238 150 1329 90 1329 c 0
 65 1329 42 1316 31 1293 c 1
 98 1142 99 -43 245 -43 c 0
 353 -43 402 700 402 826 c 0
 402 865 405 903 409 942 c 1
 453 648 515 308 515 25 c 0
 515 -13 526 -69 574 -69 c 0
 653 -69 653 86 653 139 c 0
EndSplineSet
EndChar

StartChar: x
Encoding: 110 120 327
Width: 471
VWidth: 0
Flags: HW
LayerCount: 2
Fore
SplineSet
234 894 m 1
 216 979 170 1334 96 1334 c 0
 72 1334 35 1322 35 1292 c 0
 35 1274 41 1254 54 1241 c 1
 54 1219 l 1
 87 1172 181 733 181 660 c 0
 181 447 65 253 65 40 c 0
 65 8 100 -7 127 -7 c 0
 169 -7 180 33 180 69 c 0
 180 78 180 86 179 93 c 1
 213 203 211 320 231 433 c 1
 248 353 293 3 377 3 c 0
 405 3 432 24 432 54 c 0
 432 175 284 475 284 646 c 0
 284 741 330 1021 362 1109 c 1
 362 1133 l 2
 362 1193 362 1258 397 1309 c 1
 359 1357 l 1
 277 1335 267 1286 267 1225 c 0
 267 1204 268 1181 268 1158 c 0
 268 1069 249 981 234 894 c 1
EndSplineSet
EndChar

StartChar: y
Encoding: 111 121 328
Width: 513
VWidth: 0
Flags: HW
LayerCount: 2
Fore
SplineSet
355 109 m 2
 355 726 l 1
 359 932 474 1118 474 1319 c 0
 474 1346 448 1362 424 1362 c 0
 334 1362 294 954 264 877 c 1
 238 951 155 1331 76 1333 c 1
 30 1299 l 1
 30 1288 l 2
 30 1202 190 825 230 717 c 1
 230 664 l 1
 234 564 254 464 254 364 c 0
 254 300 254 62 231 17 c 1
 241 -6 261 -28 288 -28 c 0
 350 -28 355 53 355 109 c 2
EndSplineSet
EndChar

StartChar: yen
Encoding: 122 165 331
Width: 876
VWidth: 0
Flags: HW
LayerCount: 2
Fore
SplineSet
18 1764 m 1
 18 1705 l 1
 211 1535 243 1251 423 1071 c 1
 423 1059 l 1
 389 1054 355 1052 321 1052 c 0
 268 1052 216 1056 163 1056 c 1
 138 1017 l 1
 138 1010 l 2
 138 960 201 948 270 948 c 0
 331 948 396 957 423 958 c 1
 424 954 l 1
 424 930 424 907 422 883 c 1
 326 878 229 875 133 875 c 1
 117 823 l 1
 128 798 147 776 171 763 c 1
 202 762 l 2
 207 762 211 762 216 762 c 0
 279 762 343 773 406 773 c 0
 408 773 411 773 413 773 c 1
 413 663 397 112 370 45 c 1
 370 40 l 2
 370 6 407 -8 435 -8 c 0
 496 -8 504 45 504 94 c 0
 504 111 503 128 503 142 c 0
 503 354 533 564 534 776 c 1
 700 776 l 1
 679 766 l 1
 787 766 l 2
 816 766 847 789 847 820 c 0
 847 881 767 895 687 895 c 0
 625 895 564 887 539 887 c 1
 539 950 l 1
 730 948 l 2
 733 948 736 948 739 948 c 0
 780 948 852 955 852 1005 c 0
 852 1054 792 1066 725 1066 c 0
 664 1066 598 1056 570 1056 c 1
 545 1059 l 1
 560 1121 593 1176 609 1238 c 0
 656 1422 720 1589 781 1768 c 1
 783 1778 l 1
 783 1809 755 1832 725 1832 c 0
 628 1832 509 1302 472 1207 c 1
 415 1293 170 1774 71 1774 c 0
 54 1774 37 1766 21 1759 c 1
 18 1764 l 1
EndSplineSet
EndChar

StartChar: z
Encoding: 112 122 332
Width: 493
VWidth: 0
Flags: HW
LayerCount: 2
Fore
SplineSet
344 1256 m 1
 248.2906986 877.885633262 40.5670252833 339.338223779 40.5670252833 42.2378462902 c 0
 40.5670252833 15.48543921 68.9098384857 -4 96 -4 c 0
 123 -4 142 18 169 18 c 0
 209 18 250 12 290 12 c 0
 320 12 361 25 361 62 c 0
 361 109 313 112 278 112 c 1
 278 111 l 1
 249 111 221 105 192 105 c 2
 157 105 l 1
 188.699996948 263.700012207 308 653 353 933 c 0
 373 1059 450 1172 450 1302 c 0
 450 1355 388 1359 349 1359 c 1
 349 1359 l 1
 284 1359 124 1356 124 1301 c 0
 124 1272 147 1244 177 1244 c 0
 233 1244 288 1254 344 1256 c 1
EndSplineSet
EndChar

StartChar: zero
Encoding: 38 48 336
Width: 660
VWidth: 0
Flags: HW
LayerCount: 2
Fore
SplineSet
471 568 m 0
 471 497 452 100 365 100 c 0
 233 100 225 685 225 790 c 0
 225 857 204 923 204 990 c 0
 204 1125 196 1260 196 1395 c 0
 196 1451 204 1481 249 1518 c 1
 449 1490 471 848 471 568 c 0
98 1222 m 0
 98 976 88 7 346 7 c 0
 558 7 566 373 566 521 c 0
 566 798 562 1563 272 1563 c 0
 131 1563 98 1408 98 1222 c 0
EndSplineSet
EndChar

StartChar: asciitilde
Encoding: 116 126 381
Width: 675
VWidth: 0
Flags: HW
LayerCount: 2
Fore
SplineSet
589 1223 m 0
 529 1223 559 1141 500 1141 c 0
 416 1141 255 1224 157 1224 c 0
 62 1224 9 1167 9 1105 c 0
 9 1063 46 1046 83 1046 c 1
 137 1065 88 1107 136 1125 c 1
 216 1121 240 1038 524 1038 c 0
 595 1038 656 1099 656 1170 c 0
 656 1194 636 1223 589 1223 c 0
EndSplineSet
EndChar

StartChar: daggerdbl
Encoding: 391 8225 382
Width: 853
VWidth: 0
Flags: HW
LayerCount: 2
Fore
SplineSet
354 385 m 0
 354 352 366 310 367 274 c 1
 351 271 336 270 320 270 c 0
 280 270 239 277 199 277 c 0
 170 277 153 251 153 224 c 0
 153 171 193 159 240 159 c 0
 280 159 326 168 354 168 c 1
 354 153 l 2
 354 87 367 20 367 -46 c 0
 367 -79 404 -98 433 -98 c 0
 465 -98 500 -78 500 -42 c 0
 500 26 481 94 481 162 c 0
 481 169 512 171 546 171 c 0
 587 171 626 160 667 160 c 0
 699 160 725 184 725 216 c 0
 725 266 674 278 619 278 c 0
 573 278 525 270 500 270 c 0
 484 270 468 546 468 596 c 0
 468 598 499 602 533 602 c 0
 574 602 613 591 654 591 c 0
 686 591 712 615 712 647 c 0
 712 697 661 709 606 709 c 0
 560 709 512 701 487 701 c 0
 460 701 461 853 460 884 c 1
 460 909 l 2
 460 942 440 968 408 968 c 0
 349 968 342 900 342 855 c 0
 342 805 352 755 354 705 c 1
 338 702 323 701 307 701 c 0
 267 701 226 708 186 708 c 0
 157 708 140 682 140 655 c 0
 140 602 180 590 227 590 c 0
 267 590 313 599 341 599 c 1
 341 584 l 2
 341 518 354 451 354 385 c 0
EndSplineSet
EndChar

StartChar: dagger
Encoding: 390 8224 383
Width: 853
VWidth: 0
Flags: HW
LayerCount: 2
Fore
SplineSet
354 385 m 0
 354 241 367 94 367 -46 c 0
 367 -79 404 -98 433 -98 c 0
 465 -98 500 -78 500 -42 c 0
 500 173 468 331 468 596 c 0
 468 598 499 602 533 602 c 0
 574 602 613 591 654 591 c 0
 686 591 712 615 712 647 c 0
 712 697 661 709 606 709 c 0
 552 709 495 701 466 701 c 0
 460 701 460 853 460 884 c 1
 460 909 l 2
 460 942 440 968 408 968 c 0
 349 968 342 900 342 855 c 0
 342 805 352 755 354 705 c 1
 338 702 323 701 307 701 c 0
 267 701 226 708 186 708 c 0
 157 708 140 682 140 655 c 0
 140 602 180 590 227 590 c 0
 267 590 313 599 341 599 c 1
 341 584 l 2
 341 518 354 451 354 385 c 0
EndSplineSet
EndChar

StartChar: ordfeminine
Encoding: 127 170 388
Width: 621
VWidth: 0
Flags: HW
LayerCount: 2
Fore
SplineSet
570 160 m 2
 64 160 l 2
 36 160 14 138 14 110 c 0
 14 89 49 66 93 66 c 0
 220 66 348 76 475 76 c 1
 503 78 534 78 564 78 c 0
 598 78 620 103 620 124 c 0
 620 144 605 160 570 160 c 2
451 645 m 1
 407 648 305 655 270 678 c 1
 286 777 341 1019 380 1184 c 1
 413 967 429 755 451 645 c 1
619 311 m 2
 619 431 497 1373 365 1373 c 2
 296 1373 l 1
 259 1317 261 1169 252 1100 c 0
 217 859 82 554 82 314 c 0
 82 281 117 259 147 259 c 0
 237 259 218 444 262 602 c 1
 464 572 l 1
 464 572 494 406 494 319 c 0
 494 260 536 251 585 251 c 1
 608 260 619 285 619 309 c 2
 619 311 l 2
EndSplineSet
EndChar

StartChar: ordmasculine
Encoding: 143 186 389
Width: 621
VWidth: 0
Flags: HW
LayerCount: 2
Fore
SplineSet
584 908 m 2
 584 1164 490 1378 204 1378 c 0
 66 1378 49 1078 49 880 c 0
 49 817 51 765 51 736 c 0
 51 584 82 269 315 269 c 0
 573 269 588 539 588 661 c 0
 588 738 584 816 584 893 c 2
 584 908 l 2
282 1269 m 0
 462 1269 479 1015 479 808 c 0
 479 759 478 713 478 674 c 0
 478 612 464 384 307 384 c 0
 173 384 162 758 162 827 c 0
 162 890 172 953 172 1016 c 0
 172 1027 170 1042 170 1057 c 0
 170 1157 184 1269 282 1269 c 0
570 160 m 2
 64 160 l 2
 36 160 14 138 14 110 c 0
 14 89 49 66 93 66 c 0
 220 66 348 76 475 76 c 0
 503 76 534 78 564 78 c 0
 598 78 620 103 620 124 c 0
 620 144 605 160 570 160 c 2
EndSplineSet
EndChar
